<ttFont>
          <CharString index="0">
            rmoveto
            221 144 139 217 29 hvcurveto
            53 callsubr
            182 -117 87 -198 -219 -140 -136 -216 -33 vhcurveto
            -23 callsubr
            vhcurveto
            -2 123 rmoveto
            -108 -54 57 100 18 2 20 9 52 hvcurveto
            136 23 83 81 133 hhcurveto
            110 54 -58 -99 -40 callsubr
            hvcurveto
            -136 -23 -83 -81 -135 hhcurveto
            return
          </CharString>
          <CharString index="1">
            -75 -424 rlineto
            -100 -18 -64 -51 -94 hhcurveto
            -86 -40 38 74 12 3 21 1 6 hvcurveto
            75 424 -61 callsubr
            -74 -423 rlineto
            -4 -22 -2 -22 -19 vvcurveto
            -141 98 -71 172 184 107 90 177 31 vhcurveto
            return
          </CharString>
          <CharString index="2">
            -94 -17 -56 -49 -69 hhcurveto
            -42 -25 18 47 15 3 15 3 18 hvcurveto
            54 304 -82 callsubr
            -56 -313 rlineto
            -6 -32 -5 -27 -26 vvcurveto
            -102 71 -38 80 71 65 38 45 37 vhcurveto
            7 return
          </CharString>
          <CharString index="3">
            -105 callsubr
            hlineto
            return
          </CharString>
          <CharString index="4">
            rmoveto
            -105 callgsubr
            endchar
          </CharString>
          <CharString index="5">
            rmoveto
            131 129 57 callsubr
            return
          </CharString>
          <CharString index="6">
            rmoveto
            117 hlineto
            21 118 rlineto
            -118 hlineto
            189 -118 rmoveto
            -13 callgsubr
            21 118 rlineto
            -119 hlineto
            return
          </CharString>
          <CharString index="7">
            rmoveto
            -70 hlineto
            -41 callgsubr
            -47 -34 37 -51 hhcurveto
            -67 -35 -57 -65 -11 hvcurveto
            69 hlineto
            27 9 13 10 19 47 34 -37 50 hhcurveto
            68 36 57 65 11 hvcurveto
            return
          </CharString>
          <CharString index="8">
            rlineto
            -141 hlineto
            -69 -394 rlineto
            -2 -11 -6 -47 0 vvcurveto
            -5 hlineto
            0 -19 46 -9 18 vhcurveto
            -196 388 rlineto
            -141 -17 callsubr
            141 hlineto
            69 394 rlineto
            3 18 5 42 0 vvcurveto
            5 hlineto
            0 14 -35 14 -28 vhcurveto
            return
          </CharString>
          <CharString index="9">
            rmoveto
            122 hlineto
            128 135 rlineto
            -118 hlineto
            -62 -69 -45 69 rlineto
            -107 hlineto
            return
          </CharString>
          <CharString index="10">
            rmoveto
            7 hlineto
            -10 -54 rlineto
            -80 -14 -57 -41 -83 hhcurveto
            hintmask 11111000
            -72 -29 17 40 hvcurveto
            -148 -9 hlineto
            -114 91 -57 156 163 113 90 176 29 vhcurveto
            77 432 -61 callsubr
            -31 -174 rlineto
            hintmask 11110100
            -119 -21 -59 -62 -87 hhcurveto
            -58 -33 28 54 9 1 10 2 10 hvcurveto
            43 244 -61 callsubr
            -43 -241 rlineto
            -4 -24 -2 -22 -21 vvcurveto
            -108 57 -62 122 74 61 23 55 45 vhcurveto
            endchar
          </CharString>
          <CharString index="11">
            rmoveto
            135 hlineto
            23 130 rlineto
            -135 hlineto
            return
          </CharString>
          <CharString index="12">
            rmoveto
            144 hlineto
            4 25 1 13 12 vvcurveto
            114 -115 50 -152 -157 -128 -71 -147 vhcurveto
            hintmask 11101100
            -213 365 53 -125 vvcurveto
            -47 -40 -37 -113 vhcurveto
            hintmask 11110100
            -86 -47 31 49 10 4 15 1 7 hvcurveto
            -147 hlineto
            -4 -15 -4 -23 -18 vvcurveto
            -119 129 -60 165 144 150 62 175 vhcurveto
            hintmask 11101100
            212 -368 -44 109 vvcurveto
            45 52 28 90 vhcurveto
            hintmask 11110010
            72 43 -26 -43 hvcurveto
            hintmask 11101010
            -4 0 -5 -3 -13 vhcurveto
            return
          </CharString>
          <CharString index="13">
            rmoveto
            -144 hlineto
            -91 -17 -77 -52 -101 hhcurveto
            -99 -46 52 97 20 2 23 10 55 hvcurveto
            132 23 74 85 126 hhcurveto
            79 55 -37 -77 -10 -1 -10 -2 -10 hvcurveto
            149 hlineto
            3 19 2 19 17 vvcurveto
            143 -119 69 -161 -100 -83 -29 -50 -60 vhcurveto
            -101 -84 -45 -140 -139 vvcurveto
            -190 108 -78 181 168 145 85 181 31 vhcurveto
            endchar
          </CharString>
          <CharString index="14">
            -21 -69 rlineto
            -7 hlineto
            54 -27 -56 27 -72 hhcurveto
            -178 -75 -179 -143 -138 83 -60 99 70 46 27 46 36 hvcurveto
            -103 46 rmoveto
            -63 -26 30 57 74 26 121 120 59 32 -30 -60 -77 -35 -115 90 callgsubr
          </CharString>
          <CharString index="15">
            153 hlineto
            -91 277 rlineto
            86 28 73 72 119 vvcurveto
            118 -79 72 -169 vhcurveto
            -314 -44 callsubr
            45 256 rlineto
            196 hlineto
            -142 307 rmoveto
            196 hlineto
            62 31 -29 -49 -66 -41 -42 -75 hvcurveto
            -206 hlineto
            return
          </CharString>
          <CharString index="16">
            rmoveto
            -55 132 rlineto
            -133 hlineto
            -2 -31 callsubr
            280 hmoveto
            -55 132 rlineto
            -133 hlineto
            -2 -31 callsubr
            return
          </CharString>
          <CharString index="17">
            -50 callgsubr
            hintmask 10111000
            -104 callsubr
            endchar
          </CharString>
          <CharString index="18">
            -868 rmoveto
            -105 callgsubr
            return
          </CharString>
          <CharString index="19">
            rmoveto
            163 hlineto
            303 686 rlineto
            -147 hlineto
            -176 -422 rlineto
            -14 -34 -16 -62 0 vvcurveto
            -5 hlineto
            0 0 69 -2 27 vhcurveto
            -26 422 rlineto
            -175 hlineto
            -175 -422 rlineto
            -12 -29 -18 -67 0 vvcurveto
            -5 hlineto
            0 0 66 -2 30 vhcurveto
            -29 422 rlineto
            -136 hlineto
            53 -19 callsubr
            163 hlineto
            hintmask 11011000
            188 437 rlineto
            12 29 19 68 0 vvcurveto
            4 hlineto
            0 1 -62 2 -35 vhcurveto
            endchar
          </CharString>
          <CharString index="20">
            456 12 callgsubr
            -249 hlineto
            302 354 11 60 rlineto
            -433 hlineto
            -20 -112 rlineto
            224 hlineto
            -300 -353 rlineto
            return
          </CharString>
          <CharString index="21">
            -52 callgsubr
            -96 -89 callsubr
            return
          </CharString>
          <CharString index="22">
            145 hlineto
            49 277 332 409 rlineto
            -159 hlineto
            -225 -280 rlineto
            -5 hlineto
            -129 280 rlineto
            -149 hlineto
            190 -409 rlineto
            return
          </CharString>
          <CharString index="23">
            rmoveto
            100 hlineto
            -56 132 rlineto
            -128 hlineto
            -1 -3 rlineto
            return
          </CharString>
          <CharString index="24">
            rmoveto
            -6 -32 rlineto
            -87 -16 -45 -42 -74 hhcurveto
            -54 -30 12 33 -5 hvcurveto
            -133 -10 hlineto
            -98 2 88 -49 127 hhcurveto
            166 82 81 164 29 hvcurveto
            return
          </CharString>
          <CharString index="25">
            rlineto
            -60 callgsubr
            return
          </CharString>
          <CharString index="26">
            -80 callgsubr
            endchar
          </CharString>
          <CharString index="27">
            94 17 56 49 69 hhcurveto
            42 25 -18 -47 -15 -3 -15 -3 -18 hvcurveto
            return
          </CharString>
          <CharString index="28">
            rmoveto
            142 hlineto
            249 526 rlineto
            -136 hlineto
            -93 -218 rlineto
            -24 -56 -32 -93 0 vvcurveto
            -4 hlineto
            0 -5 101 -4 48 vhcurveto
            hintmask 10111000
            -18 218 rlineto
            -141 hlineto
            -92 -217 rlineto
            -19 -45 -38 -105 0 vvcurveto
            -4 hlineto
            0 -3 114 -3 37 vhcurveto
            -19 216 rlineto
            -135 hlineto
            64 -526 rlineto
            142 hlineto
            108 252 rlineto
            hintmask 11011000
            22 51 19 64 0 vvcurveto
            5 hlineto
            0 0 -66 3 -50 vhcurveto
            endchar
          </CharString>
          <CharString index="29">
            304 hlineto
            113 90 39 65 63 hvcurveto
            75 78 37 114 120 vvcurveto
            184 -106 86 -181 vhcurveto
            -274 hlineto
            return
          </CharString>
          <CharString index="30">
            -92 -12 -67 callsubr
            return
          </CharString>
          <CharString index="31">
            hlineto
            22 123 rlineto
            return
          </CharString>
          <CharString index="32">
            rlineto
            28 5 17 15 28 hhcurveto
            50 hlineto
            17 96 rlineto
            8 -21 -42 8 -32 hhcurveto
            -103 -43 -73 -72 -12 hvcurveto
            -10 -60 rlineto
            -75 hlineto
            -20 -112 rlineto
            75 hlineto
            -78 -441 rlineto
            -28 -5 -17 -15 -28 hhcurveto
            return
          </CharString>
          <CharString index="33">
            123 464 123 return
          </CharString>
          <CharString index="34">
            145 hlineto
            121 686 -61 callsubr
            return
          </CharString>
          <CharString index="35">
            731 -17 callgsubr
            59 -49 60 -90 -133 -41 -73 -64 -11 vhcurveto
            90 hlineto
            20 6 26 28 47 hhcurveto
            47 18 -28 -20 -1 hvcurveto
            return
          </CharString>
          <CharString index="36">
            123 166 123 151 123 return
          </CharString>
          <CharString index="37">
            750 -101 callsubr
            return
          </CharString>
          <CharString index="38">
            -12 -74 callsubr
            return
          </CharString>
          <CharString index="39">
            rmoveto
            -63 callgsubr
            return
          </CharString>
          <CharString index="40">
            112 -112 -38 callsubr
            return
          </CharString>
          <CharString index="41">
            -72 -12 112 326 112 return
          </CharString>
          <CharString index="42">
            -183 116 -86 197 return
          </CharString>
          <CharString index="43">
            93 526 -82 callsubr
            return
          </CharString>
          <CharString index="44">
            -101 callsubr
            -53 -2 callgsubr
            return
          </CharString>
          <CharString index="45">
            -72 -12 -48 callgsubr
            return
          </CharString>
          <CharString index="46">
            rlineto
            -20 callsubr
            return
          </CharString>
          <CharString index="47">
            119 0 123 452 123 hstem
            52 142 415 152 vstem
            378 hmoveto
            332 -76 callsubr
            -51 hlineto
            -21 -43 -11 -3 -40 hvcurveto
            107 61 77 110 152 vvcurveto
            169 -116 97 -200 -236 -157 -171 -218 -89 36 -66 56 -45 vhcurveto
            4 -39 -38 10 -20 hhcurveto
            -50 hlineto
            -22 -123 rlineto
            331 hlineto
            20 111 rlineto
            -88 17 -44 55 83 vvcurveto
            16 2 16 8 50 vhcurveto
            152 26 85 75 138 hhcurveto
            103 53 -52 -105 -21 -3 -24 -9 -57 hvcurveto
            -18 -113 -72 -74 -110 -19 rrcurveto
            endchar
          </CharString>
          <CharString index="48">
            rmoveto
            84 hlineto
            56 64 rlineto
            -18 40 52 -9 64 hhcurveto
            220 75 175 170 61 -16 46 -33 34 hvcurveto
            89 101 rlineto
            -84 hlineto
            -57 -65 rlineto
            19 -41 -52 9 -64 hhcurveto
            -220 -73 -177 -170 -61 16 -46 32 -33 hvcurveto
            317 362 rmoveto
            -219 -250 rlineto
            -3 11 -1 13 14 vvcurveto
            16 1 18 7 36 vhcurveto
            101 19 43 54 91 hhcurveto
            26 20 -4 -9 16 hvcurveto
            -180 -301 rmoveto
            219 249 rlineto
            2 -11 2 -12 -13 vvcurveto
            -16 -2 -18 -6 -36 vhcurveto
            -101 -17 -45 -54 -92 hhcurveto
            -25 -20 4 8 -16 hvcurveto
            endchar
          </CharString>
          <CharString index="49">
            80 callgsubr
            99 50 -54 -92 -21 -3 -22 -8 -46 hvcurveto
            -128 -22 -80 -77 -123 hhcurveto
            return
          </CharString>
          <CharString index="50">
            883 -54 callsubr
            return
          </CharString>
          <CharString index="51">
            -102 -132 rlineto
            return
          </CharString>
          <CharString index="52">
            -89 callsubr
            endchar
          </CharString>
          <CharString index="53">
            -100 callsubr
            -160 -295 -103 callgsubr
            return
          </CharString>
          <CharString index="54">
            24 133 273 133 return
          </CharString>
          <CharString index="55">
            116 124 rlineto
            -94 hlineto
            -76 -81 rlineto
            29 -51 -68 15 -80 hhcurveto
            -105 -88 -31 -56 -64 hvcurveto
            -94 -82 -47 -131 -141 vvcurveto
            -78 21 -60 39 -44 vhcurveto
            442 476 rmoveto
            -338 -364 rlineto
            -10 23 -5 27 31 vvcurveto
            18 2 20 9 52 vhcurveto
            136 24 85 81 137 hhcurveto
            39 32 -8 -16 25 hvcurveto
            -293 -416 rmoveto
            338 364 rlineto
            11 -23 5 -27 -31 vvcurveto
            -40 callsubr
            vhcurveto
            -136 -24 -85 -81 -138 hhcurveto
            -40 -32 8 16 -24 hvcurveto
            endchar
          </CharString>
          <CharString index="56">
            39 0 123 189 85 166 6 callsubr
            -51 -289 rlineto
            -63 hlineto
            -14 -85 rlineto
            62 hlineto
            241 -189 rmoveto
            -129 hlineto
            33 189 80 callgsubr
            15 85 rlineto
            -139 hlineto
            29 166 -58 callsubr
            endchar
          </CharString>
          <CharString index="57">
            rmoveto
            -73 callsubr
            return
          </CharString>
          <CharString index="58">
            rmoveto
            58 hlineto
            21 11 -3 -12 return
          </CharString>
          <CharString index="59">
            -218 -159 -40 -164 -112 123 -18 76 86 60 28 43 47 hvcurveto
            -49 38 67 -22 96 hhcurveto
            126 96 61 137 21 hvcurveto
            1 callsubr
            -357 -91 rmoveto
            -3 -16 rlineto
            -66 -12 -43 -53 -92 hhcurveto
            -48 -20 19 25 74 110 17 108 hvcurveto
            endchar
          </CharString>
          <CharString index="60">
            -138 hlineto
            return
          </CharString>
          <CharString index="61">
            106 137 91 109 107 return
          </CharString>
          <CharString index="62">
            rlineto
            -47 callsubr
            return
          </CharString>
          <CharString index="63">
            -17 callsubr
            145 hlineto
            return
          </CharString>
          <CharString index="64">
            102 -70 38 -80 -71 -65 -38 -45 -37 vhcurveto
            -7 hlineto
            return
          </CharString>
          <CharString index="65">
            -12 -46 callsubr
            return
          </CharString>
          <CharString index="66">
            346 hlineto
            6 32 rlineto
            return
          </CharString>
          <CharString index="67">
            -19 -2 -20 -9 -51 return
          </CharString>
          <CharString index="68">
            rlineto
            -6 hlineto
            47 -33 -48 26 -78 hhcurveto
            -176 -69 -202 -140 -144 71 -64 119 59 56 31 50 39 hvcurveto
            7 hlineto
            return
          </CharString>
          <CharString index="69">
            119 316 115 -12 -20 return
          </CharString>
          <CharString index="70">
            rmoveto
            -63 -27 34 63 75 22 144 125 59 32 -34 -67 -93 -35 -122 -113 hvcurveto
            return
          </CharString>
          <CharString index="71">
            17 138 227 137 return
          </CharString>
          <CharString index="72">
            hstemhm
            16 150 -79 149 216 152 -111 146 return
          </CharString>
          <CharString index="73">
            hstemhm
            8 137 -87 141 150 142 -114 139 return
          </CharString>
          <CharString index="74">
            4 callsubr
            hstem
            542 150 vstem
            471 hmoveto
            -92 callsubr
            return
          </CharString>
          <CharString index="75">
            -1 callgsubr
            99 560 -61 callsubr
            return
          </CharString>
          <CharString index="76">
            -3 85 -129 rlineto
            return
          </CharString>
          <CharString index="77">
            -66 callsubr
            53 132 hstem
            -53 callsubr
            vstem
            return
          </CharString>
          <CharString index="78">
            -54 callgsubr
            -17 -28 -26 -19 -36 -13 rrcurveto
            -102 hlineto
            -49 -274 rlineto
            return
          </CharString>
          <CharString index="79">
            -21 561 125 88 callsubr
            176 hmoveto
            145 hlineto
            99 561 -5 callsubr
            return
          </CharString>
          <CharString index="80">
            174 -292 -52 82 vvcurveto
            31 40 17 57 vhcurveto
            return
          </CharString>
          <CharString index="81">
            473 -83 callgsubr
            return
          </CharString>
          <CharString index="82">
            -92 -12 -18 callgsubr
            return
          </CharString>
          <CharString index="83">
            81 56 41 139 23 hvcurveto
            4 25 2 21 19 vvcurveto
            88 -50 28 -82 -81 -57 -42 -139 -22 vhcurveto
            -4 -25 -3 -22 -19 vvcurveto
            -86 51 -28 82 vhcurveto
            return
          </CharString>
          <CharString index="84">
            -4 -29 -2 -30 -30 vvcurveto
            -65 callsubr
            return
          </CharString>
          <CharString index="85">
            14 1 15 3 17 return
          </CharString>
          <CharString index="86">
            57 callgsubr
            -137 hlineto
            -101 -132 rlineto
            287 36 callsubr
            -137 hlineto
            -56 callsubr
            return
          </CharString>
          <CharString index="87">
            -145 hlineto
            return
          </CharString>
          <CharString index="88">
            -686 rlineto
            return
          </CharString>
          <CharString index="89">
            0 -22 9 -34 -65 -33 -44 -53 -28 vhcurveto
            -7 hlineto
            return
          </CharString>
          <CharString index="90">
            hlineto
            -121 -19 callsubr
            return
          </CharString>
          <CharString index="91">
            123 575 -20 return
          </CharString>
          <CharString index="92">
            42 18 27 24 46 vvcurveto
            61 -46 30 -71 -65 -55 -40 -62 -10 vhcurveto
            return
          </CharString>
          <CharString index="93">
            87 callsubr
            -138 hlineto
            return
          </CharString>
          <CharString index="94">
            62 69 rlineto
            return
          </CharString>
          <CharString index="95">
            -405 21 41 callgsubr
            return
          </CharString>
          <CharString index="96">
            -21 289 125 272 -20 hstem
            9 709 vstem
            452 hmoveto
            2 callgsubr
            return
          </CharString>
          <CharString index="97">
            40 21 22 32 38 vvcurveto
            51 -37 39 -79 -82 -50 -54 -60 -26 11 -25 22 -16 vhcurveto
            return
          </CharString>
          <CharString index="98">
            vvcurveto
            -58 46 -19 46 24 23 5 9 27 vhcurveto
            return
          </CharString>
          <CharString index="99">
            41 callgsubr
            217 -20 hstem
            13 562 vstem
            345 hmoveto
            147 hlineto
            -126 319 209 207 rlineto
            -158 hlineto
            -212 -211 72 408 77 callsubr
            rlineto
            -24 callgsubr
            27 152 91 70 rlineto
            return
          </CharString>
          <CharString index="100">
            33 6 18 13 24 hhcurveto
            20 13 -9 -20 -36 -31 -16 -29 hvcurveto
            return
          </CharString>
          <CharString index="101">
            -723 -59 callgsubr
          </CharString>
          <CharString index="102">
            36 callgsubr
            -569 hlineto
            -22 -125 74 callsubr
            return
          </CharString>
          <CharString index="103">
            -2 callsubr
            -66 -59 -33 -40 -37 vhcurveto
            -7 hlineto
            return
          </CharString>
          <CharString index="104">
            hintmask 11010100
            17 hmoveto
            -24 callgsubr
            45 254 rlineto
            96 17 45 51 91 hhcurveto
            38 hlineto
            hintmask 11001100
            22 128 rlineto
            hintmask 11010100
            -18 callsubr
            hintmask 11100100
            85 -113 vlineto
            return
          </CharString>
          <CharString index="105">
            -67 callgsubr
            102 -70 38 -80 return
          </CharString>
          <CharString index="106">
            -16 -12 123 97 123 355 -20 return
          </CharString>
          <CharString index="107">
            -37 callsubr
            endchar
          </CharString>
          <CharString index="108">
            9 callsubr
            -94 callgsubr
            return
          </CharString>
          <CharString index="109">
            -144 71 -64 119 59 56 31 50 39 vhcurveto
            7 hlineto
            -119 38 -37 callsubr
            return
          </CharString>
          <CharString index="110">
            -17 -227 -103 callgsubr
            return
          </CharString>
          <CharString index="111">
            -21 256 121 186 123 return
          </CharString>
          <CharString index="112">
            -21 417 121 -12 -20 return
          </CharString>
          <CharString index="113">
            123 44 callgsubr
            -39 callgsubr
            return
          </CharString>
          <CharString index="114">
            77 callgsubr
            -55 hlineto
            82 156 rlineto
            -72 hlineto
            -96 -168 rlineto
            return
          </CharString>
          <CharString index="115">
            -74 callgsubr
            47 135 return
          </CharString>
          <CharString index="116">
            -135 hlineto
            -61 -11 -38 -31 -63 hhcurveto
            -68 -27 31 60 -22 callsubr
            hvcurveto
            return
          </CharString>
          <CharString index="117">
            -52 callgsubr
            24 -719 rmoveto
            return
          </CharString>
          <CharString index="118">
            29 callsubr
            686 -20 return
          </CharString>
          <CharString index="119">
            369 hmoveto
            114 hlineto
            -22 callgsubr
            46 callsubr
            hvcurveto
            return
          </CharString>
          <CharString index="120">
            -98 2 86 -49 124 hhcurveto
            endchar
          </CharString>
          <CharString index="121">
            hstemhm
            33 148 -101 148 hintmask 11110100
            return
          </CharString>
          <CharString index="122">
            hstemhm
            -36 callsubr
            return
          </CharString>
          <CharString index="123">
            12 69 rlineto
            -40 hlineto
            26 148 rlineto
            -44 hlineto
            -15 -31 -23 -42 -19 -27 -8 -48 rcurveline
            -82 hlineto
            34 37 77 103 40 89 rrcurveto
            -94 hlineto
            return
          </CharString>
          <CharString index="124">
            rmoveto
            -41 callsubr
            5 28 3 26 24 vvcurveto
            135 -72 62 -146 -67 -49 -18 -30 -39 vhcurveto
            31 -36 -59 17 -87 hhcurveto
            return
          </CharString>
          <CharString index="125">
            rmoveto
            105 hlineto
            44 132 26 147 rlineto
            -149 hlineto
            -26 -147 rlineto
            return
          </CharString>
          <CharString index="126">
            82 463 rlineto
            -117 hlineto
            return
          </CharString>
          <CharString index="127">
            rmoveto
            183 hlineto
            19 104 rlineto
            -183 hlineto
            36 204 rlineto
            -107 hlineto
            -36 -204 rlineto
            -182 hlineto
            -19 -104 rlineto
            182 hlineto
            return
          </CharString>
          <CharString index="128">
            490 484 rmoveto
            144 hlineto
            4 25 1 13 12 vvcurveto
            114 -115 50 -152 -157 -128 -71 -147 vhcurveto
            return
          </CharString>
          <CharString index="129">
            -19 -173 39 callsubr
            41 234 rlineto
            6 hlineto
            -47 33 48 -26 78 hhcurveto
            176 69 202 140 144 return
          </CharString>
          <CharString index="130">
            -168 rmoveto
            10 55 rlineto
            -24 hlineto
            return
          </CharString>
          <CharString index="131">
            39 -26 callgsubr
            64 -21 131 121 309 125 return
          </CharString>
          <CharString index="132">
            95 92 callgsubr
            return
          </CharString>
          <CharString index="133">
            21 -21 686 71 callsubr
            return
          </CharString>
          <CharString index="134">
            -16 -9 -7 -26 return
          </CharString>
          <CharString index="135">
            376 372 rmoveto
            -64 callgsubr
            return
          </CharString>
          <CharString index="136">
            -405 21 -21 return
          </CharString>
          <CharString index="137">
            528 -83 callgsubr
            return
          </CharString>
          <CharString index="138">
            317 221 98 hstem
            -15 1016 vstem
            -15 221 rmoveto
            999 hlineto
            17 98 rlineto
            -1000 hlineto
            endchar
          </CharString>
          <CharString index="139">
            hstem
            -54 717 vstem
            return
          </CharString>
          <CharString index="140">
            rmoveto
            440 -196 20 114 -347 142 398 142 20 122 -508 -197 rlineto
            return
          </CharString>
          <CharString index="141">
            112 302 112 return
          </CharString>
          <CharString index="142">
            -13 callsubr
            190 -653 rmoveto
            return
          </CharString>
          <CharString index="143">
            hmoveto
            131 129 -1 3 rlineto
            return
          </CharString>
          <CharString index="144">
            17 140 225 140 return
          </CharString>
          <CharString index="145">
            -12 110 330 110 return
          </CharString>
          <CharString index="146">
            rmoveto
            -24 callgsubr
            return
          </CharString>
          <CharString index="147">
            rmoveto
            -149 hlineto
            36 204 rlineto
            149 hlineto
            72 30 -31 -55 -79 -57 -39 -81 hvcurveto
            endchar
          </CharString>
          <CharString index="148">
            5 callsubr
            33 callgsubr
            return
          </CharString>
          <CharString index="149">
            -6 callgsubr
            91 41 callgsubr
            return
          </CharString>
          <CharString index="150">
            132 27 callgsubr
            return
          </CharString>
          <CharString index="151">
            112 hstem
            433 138 vstem
            -21 hmoveto
            491 12 callgsubr
            -306 hlineto
            return
          </CharString>
          <CharString index="152">
            -17 49 183 rlineto
            -108 hlineto
            -15 -183 -202 17 -20 -113 208 18 return
          </CharString>
          <CharString index="153">
            -45 -258 rlineto
            -6 hlineto
            47 -33 -48 26 -78 hhcurveto
            -176 -69 -202 -140 return
          </CharString>
          <CharString index="154">
            -26 callgsubr
            31 -74 callsubr
            return
          </CharString>
          <CharString index="155">
            0 53 callgsubr
            return
          </CharString>
          <CharString index="156">
            723 rmoveto
            -70 hlineto
            return
          </CharString>
          <CharString index="157">
            112 hstemhm
            35 141 hintmask 00000000
            return
          </CharString>
          <CharString index="158">
            -72 48 callsubr
            return
          </CharString>
          <CharString index="159">
            151 -12 68 89 67 82 68 return
          </CharString>
          <CharString index="160">
            4 28 2 28 29 vvcurveto
            return
          </CharString>
          <CharString index="161">
            rlineto
            -94 -17 -56 -49 -69 hhcurveto
            -42 -25 18 47 15 3 15 3 18 hvcurveto
            return
          </CharString>
          <CharString index="162">
            172 hlineto
            176 109 92 167 120 -70 71 -186 hvcurveto
            return
          </CharString>
          <CharString index="163">
            -6 callgsubr
            91 -21 414 112 return
          </CharString>
          <CharString index="164">
            -1 3 -45 callsubr
            -56 callsubr
            return
          </CharString>
          <CharString index="165">
            132 hstemhm
            -53 callsubr
            return
          </CharString>
          <CharString index="166">
            -72 -6 callgsubr
            return
          </CharString>
          <CharString index="167">
            723 rmoveto
            -90 hlineto
            return
          </CharString>
          <CharString index="168">
            54 callgsubr
            34 149 318 110 -14 150 hintmask 00000000
            return
          </CharString>
          <CharString index="169">
            539 0 112 -112 123 291 112 37 123 return
          </CharString>
          <CharString index="170">
            54 11 16 38 52 hhcurveto
            38 13 -21 -33 -11 -1 -13 -6 -29 hvcurveto
            return
          </CharString>
          <CharString index="171">
            317 0 123 8 121 37 123 151 123 return
          </CharString>
          <CharString index="172">
            hstem
            37 callsubr
            vstem
            return
          </CharString>
          <CharString index="173">
            10 55 rlineto
            -24 hlineto
            -29 -11 17 21 return
          </CharString>
          <CharString index="174">
            68 87 69 35 114 -68 68 hstemhm
            return
          </CharString>
          <CharString index="175">
            -350 591 132 hstem
            return
          </CharString>
          <CharString index="176">
            37 -18 25 -30 14 vhcurveto
            return
          </CharString>
          <CharString index="177" raw="1">
            77dbda0a 0b  
          </CharString>
          <CharString index="178">
            -20 70 132 hstem
            return
          </CharString>
          <CharString index="179">
            -20 callgsubr
            hstem
            34 149 return
          </CharString>
          <CharString index="180">
            -294 -159 77 324 41 10 41 324 77 hstemhm
            return
          </CharString>
          <CharString index="181">
            rlineto
            212 hlineto
            return
          </CharString>
          <CharString index="182">
            58 57 hhcurveto
            39 24 -17 -45 -15 -3 -17 -3 -19 hvcurveto
            return
          </CharString>
          <CharString index="183">
            -12 122 -89 -21 686 -20 return
          </CharString>
          <CharString index="184">
            -82 callsubr
            -127 -723 return
          </CharString>
          <CharString index="185">
            110 hintmask 00000000
            return
          </CharString>
          <CharString index="186">
            89 -89 137 return
          </CharString>
          <CharString index="187">
            112 314 50 callsubr
            return
          </CharString>
          <CharString index="188">
            -9 callgsubr
            hstemhm
            return
          </CharString>
          <CharString index="189">
            27 callgsubr
            17 92 return
          </CharString>
          <CharString index="190">
            85 -48 85 hstemhm
            return
          </CharString>
          <CharString index="191">
            0 137 549 -20 hstem
            39 266 vstem
            return
          </CharString>
          <CharString index="192">
            -64 callsubr
            -49 -274 rlineto
            return
          </CharString>
          <CharString index="193">
            rlineto
            -60 hlineto
            -220 -173 -3 -21 166 return
          </CharString>
          <CharString index="194">
            138 hlineto
            25 137 rlineto
            return
          </CharString>
          <CharString index="195">
            hstem
            63 591 vstem
            return
          </CharString>
          <CharString index="196">
            hlineto
            -16 -96 rlineto
            return
          </CharString>
          <CharString index="197">
            15 callgsubr
            hintmask 00000000
            return
          </CharString>
          <CharString index="198">
            206 -12 106 137 91 110 106 return
          </CharString>
          <CharString index="199">
            -21 -7 16 26 14 1 17 7 34 hvcurveto
            return
          </CharString>
          <CharString index="200">
            -26 callgsubr
            64 -21 686 -20 hstem
            return
          </CharString>
          <CharString index="201">
            736 37 callgsubr
            return
          </CharString>
          <CharString index="202">
            -22 callgsubr
            endchar
          </CharString>
        <CharString name=".notdef">
          -182 0 50 600 50 hstem
          0 50 400 50 vstem
          0 vmoveto
          500 700 -500 hlineto
          420 -50 rmoveto
          -170 -255 -170 255 rlineto
          140 -300 rmoveto
          -170 -255 rlineto
          510 vlineto
          400 hmoveto
          -510 vlineto
          -170 255 rlineto
          -30 -45 rmoveto
          170 -255 rlineto
          -340 hlineto
          endchar
        </CharString>
        <CharString name="A">
          -74 callgsubr
          32 callsubr
          515 hmoveto
          -105 callgsubr
          endchar
        </CharString>
        <CharString name="AE">
          64 callsubr
          hstemhm
          -62 1064 hintmask 10111000
          505 hmoveto
          -3 callgsubr
          hintmask 11111000
          31 callgsubr
        </CharString>
        <CharString name="AEacute">
          64 callsubr
          50 132 hstemhm
          -62 1064 hintmask 10111100
          641 736 -102 callsubr
          -26 -736 rmoveto
          -3 callgsubr
          hintmask 11111100
          31 callgsubr
        </CharString>
        <CharString name="Aacute">
          -74 callgsubr
          50 132 32 callsubr
          492 736 -102 callsubr
          133 -736 -103 callsubr
        </CharString>
        <CharString name="Abreve">
          -74 callgsubr
          45 89 hstemhm
          -54 717 -377 92 hintmask 11111000
          611 868 rmoveto
          -90 hlineto
          hintmask 11110100
          -40 callgsubr
          -97 callgsubr
          hintmask 11111000
          -86 callsubr
          endchar
        </CharString>
        <CharString name="Acircumflex">
          8 callsubr
          32 callsubr
          490 -83 callgsubr
          70 -802 -103 callsubr
        </CharString>
        <CharString name="Adieresis">
          -74 callgsubr
          64 118 32 callsubr
          277 -70 callsubr
          8 -55 callsubr
        </CharString>
        <CharString name="Agrave">
          -74 callgsubr
          50 132 32 callsubr
          387 736 -84 callsubr
          213 -865 -103 callsubr
        </CharString>
        <CharString name="Amacron">
          -74 callgsubr
          70 88 32 callsubr
          290 756 -65 callgsubr
          210 -844 -103 callsubr
        </CharString>
        <CharString name="Aogonek">
          39 -182 69 134 -21 131 121 309 125 hstem
          458 112 vstem
          634 23 callsubr
          -36 -14 17 21 29 18 28 18 18 hvcurveto
          57 hlineto
          -147 686 rlineto
          -182 hlineto
          -388 -19 callsubr
          155 hlineto
          72 131 rlineto
          315 hlineto
          27 -131 rlineto
          -29 -25 -28 -33 -47 vvcurveto
          -58 48 -19 49 25 25 5 9 29 vhcurveto
          -204 594 -100 callgsubr
          endchar
        </CharString>
        <CharString name="Aring">
          -74 callgsubr
          15 57 88 57 hstemhm
          344 58 90 57 hintmask 00000000
          hintmask 11111110
          434 701 -78 callgsubr
          23 -810 rmoveto
          148 hlineto
          hintmask 11101110
          -147 686 rlineto
          -182 hlineto
          -388 -19 callsubr
          155 hlineto
          72 131 rlineto
          315 hlineto
          -58 295 -100 callgsubr
          endchar
        </CharString>
        <CharString name="Aringacute">
          39 21 -21 131 121 434 -20 24 -20 108 57 26 132 hstemhm
          329 58 90 57 hintmask 11010111
          505 861 -102 callsubr
          120 -861 rmoveto
          148 hlineto
          hintmask 11101111
          -147 686 rlineto
          11 18 7 22 23 vvcurveto
          49 -31 37 -59 -68 -47 -55 -63 -11 1 -11 4 -9 vhcurveto
          -388 -19 callsubr
          155 hlineto
          72 131 rlineto
          315 hlineto
          hintmask 11011111
          -11 611 rmoveto
          -29 -26 -23 -27 -23 -14 14 20 30 22 24 30 23 15 -15 -21 vhcurveto
          -47 -316 -100 callgsubr
          endchar
        </CharString>
        <CharString name="Atilde">
          -74 callgsubr
          60 122 32 callsubr
          628 868 -100 callsubr
          -113 -55 callsubr
        </CharString>
        <CharString name="B">
          39 0 123 168 121 151 123 hstemhm
          502 148 -117 155 hintmask 11110000
          9 hmoveto
          383 hlineto
          135 123 65 141 76 -45 54 -60 20 hvcurveto
          4 vlineto
          hintmask 11101000
          80 15 63 67 83 vvcurveto
          108 -87 53 -138 vhcurveto
          -333 hlineto
          124 -123 rmoveto
          207 hlineto
          39 33 -22 -44 -42 -27 -43 -72 hvcurveto
          -206 hlineto
          -22 -121 rmoveto
          hintmask 11110000
          205 hlineto
          63 28 -31 -45 -61 -51 -31 -61 hvcurveto
          -213 hlineto
          endchar
        </CharString>
        <CharString name="C">
          39 -69 callsubr
          hstem
          34 149 369 151 vstem
          667 254 -94 callsubr
        </CharString>
        <CharString name="CR">
          -683 endchar
        </CharString>
        <CharString name="Cacute">
          39 72 callsubr
          369 151 vstem
          502 736 -102 callsubr
          275 -482 -94 callsubr
        </CharString>
        <CharString name="Cacute.loclPLK">
          39 72 callsubr
          369 151 vstem
          383 736 -49 callgsubr
          235 -614 -94 callsubr
        </CharString>
        <CharString name="Ccaron">
          39 92 callgsubr
          hstem
          34 149 369 151 vstem
          386 733 -98 callsubr
          363 -614 -94 callsubr
        </CharString>
        <CharString name="Ccedilla">
          39 38 callgsubr
          45 -21 584 123 hstemhm
          34 149 140 108 121 151 hintmask 00000000
          hintmask 10111111
          344 -33 rmoveto
          7 22 156 9 130 85 30 171 rlinecurve
          -144 hlineto
          -91 -17 -77 -52 -101 hhcurveto
          -99 -46 52 97 20 2 23 10 55 hvcurveto
          132 23 74 85 126 hhcurveto
          79 55 -37 -77 -10 -1 -10 -2 -10 hvcurveto
          149 hlineto
          3 19 2 19 17 vvcurveto
          143 -119 69 -161 -100 -83 -29 -50 -60 vhcurveto
          -101 -84 -45 -140 -139 vvcurveto
          hintmask 10011111
          -170 86 -80 146 -15 vhcurveto
          hintmask 10111111
          -22 -68 1 callgsubr
        </CharString>
        <CharString name="Ccircumflex">
          39 92 callgsubr
          hstem
          34 149 369 151 vstem
          500 -83 callgsubr
          212 -548 -94 callsubr
        </CharString>
        <CharString name="Cdotaccent">
          39 -69 callsubr
          41 130 hstem
          34 149 369 151 vstem
          380 739 -96 callsubr
          264 -615 -94 callsubr
        </CharString>
        <CharString name="D">
          39 0 123 440 123 hstem
          541 150 vstem
          9 hmoveto
          -56 callgsubr
          endchar
        </CharString>
        <CharString name="Dcaron">
          39 48 callsubr
          47 135 44 callgsubr
          366 733 -98 callsubr
          -275 -868 rmoveto
          -56 callgsubr
          endchar
        </CharString>
        <CharString name="Dcroat">
          -51 callsubr
        </CharString>
        <CharString name="Delta">
          36 0 123 438 125 32 callsubr
          -54 hmoveto
          717 hlineto
          -147 686 rlineto
          -182 hlineto
          94 -260 rmoveto
          42 -206 rlineto
          9 -48 15 -49 0 vvcurveto
          -328 hlineto
          0 31 47 28 50 vhcurveto
          112 206 rlineto
          19 34 48 101 0 vvcurveto
          5 hlineto
          0 12 -101 7 -34 vhcurveto
          endchar
        </CharString>
        <CharString name="E">
          -69 callgsubr
          39 callgsubr
          9 hmoveto
          -102 callgsubr
          endchar
        </CharString>
        <CharString name="Eacute">
          -69 callgsubr
          50 132 39 callgsubr
          475 736 -102 callsubr
          -356 -736 rmoveto
          -102 callgsubr
          endchar
        </CharString>
        <CharString name="Ebreve">
          -69 callgsubr
          45 89 hstemhm
          9 660 -400 92 hintmask 11111000
          594 868 rmoveto
          -90 hlineto
          hintmask 11110100
          -40 callgsubr
          -97 callgsubr
          hintmask 11111000
          -52 callgsubr
          -585 -868 rmoveto
          -102 callgsubr
          endchar
        </CharString>
        <CharString name="Ecaron">
          4 callgsubr
          39 callgsubr
          359 733 -98 callsubr
          -268 -868 rmoveto
          -102 callgsubr
          endchar
        </CharString>
        <CharString name="Ecircumflex">
          4 callgsubr
          hstem
          9 660 28 callgsubr
          -419 -802 rmoveto
          -102 callgsubr
          endchar
        </CharString>
        <CharString name="Edieresis">
          -69 callgsubr
          64 118 39 callgsubr
          260 -70 callsubr
          -481 -868 rmoveto
          -102 callgsubr
          endchar
        </CharString>
        <CharString name="Edotaccent">
          -69 callgsubr
          53 130 39 callgsubr
          353 739 -96 callsubr
          -367 -869 rmoveto
          -102 callgsubr
          endchar
        </CharString>
        <CharString name="Egrave">
          -69 callgsubr
          50 132 39 callgsubr
          370 736 -84 callsubr
          -276 -865 rmoveto
          -102 callgsubr
          endchar
        </CharString>
        <CharString name="Emacron">
          -69 callgsubr
          70 88 39 callgsubr
          273 756 -65 callgsubr
          -279 -844 rmoveto
          -102 callgsubr
          endchar
        </CharString>
        <CharString name="Eng">
          39 -6 callgsubr
          91 66 callgsubr
          353 55 callgsubr
          128 727 -99 callsubr
          196 -391 -5 -27 rlineto
          -28 -5 -17 -15 -28 hhcurveto
          endchar
        </CharString>
        <CharString name="Eogonek">
          -16 -182 69 113 -71 callsubr
          hstem
          357 112 vstem
          524 23 callsubr
          -26 -15 14 17 31 46 35 39 16 hvcurveto
          22 123 rlineto
          -400 hlineto
          29 166 rlineto
          350 -76 callsubr
          -350 hlineto
          26 151 rlineto
          394 -76 callsubr
          -539 -17 callsubr
          435 hlineto
          -48 -25 -39 -37 -52 vvcurveto
          -51 49 -17 44 24 23 5 9 27 vhcurveto
          endchar
        </CharString>
        <CharString name="Eth">
          -51 callsubr
        </CharString>
        <CharString name="Euro">
          -12 112 133 81 70 81 121 112 0 -20 hstemhm
          -10 591 hintmask 11110100
          462 6 rmoveto
          19 110 rlineto
          0 -51 -16 -55 -50 -104 19 114 -18 vhcurveto
          226 hlineto
          14 81 rlineto
          -240 hlineto
          2 25 3 23 6 22 rrcurveto
          242 hlineto
          14 81 rlineto
          -224 hlineto
          80 47 79 41 100 hhcurveto
          48 42 -16 0 hvcurveto
          hintmask 11101100
          19 110 rlineto
          hintmask 11110100
          0 -47 18 -82 -126 -164 -53 -180 -69 vhcurveto
          -63 hlineto
          -14 -81 rlineto
          54 hlineto
          -4 -22 -3 -24 -2 -24 rrcurveto
          -58 hlineto
          -13 -81 rlineto
          71 hlineto
          -184 15 147 -61 112 hhcurveto
          76 51 18 0 hvcurveto
          endchar
        </CharString>
        <CharString name="F">
          -72 21 -21 271 123 169 123 hstem
          9 618 vstem
          202 271 rmoveto
          315 hlineto
          21 123 rlineto
          -315 hlineto
          30 169 rlineto
          352 -76 callsubr
          -497 -44 callsubr
          endchar
        </CharString>
        <CharString name="G">
          -28 callgsubr
          16 callgsubr
          hintmask 00000000
          hintmask 01111100
          558 hmoveto
          -47 callgsubr
          hintmask 10111100
          -98 callgsubr
          endchar
        </CharString>
        <CharString name="G_tilde.loclGUA">
          -28 callgsubr
          48 122 16 callgsubr
          hintmask 10111110
          666 868 -100 callsubr
          hintmask 01111110
          -108 -868 rmoveto
          -47 callgsubr
          hintmask 10111110
          -98 callgsubr
          endchar
        </CharString>
        <CharString name="Gbreve">
          -28 callgsubr
          33 89 hstemhm
          34 149 141 92 173 153 hintmask 10111111
          649 868 rmoveto
          -90 hlineto
          -40 callgsubr
          -97 callgsubr
          -52 callgsubr
          hintmask 01111111
          -91 -868 rmoveto
          -47 callgsubr
          hintmask 10111111
          -98 callgsubr
          endchar
        </CharString>
        <CharString name="Gcaron">
          -28 callgsubr
          35 135 16 callgsubr
          hintmask 10111110
          414 733 -98 callsubr
          hintmask 01111110
          226 -868 rmoveto
          -47 callgsubr
          hintmask 10111110
          -98 callgsubr
          endchar
        </CharString>
        <CharString name="Gcircumflex">
          -28 callgsubr
          35 135 16 callgsubr
          hintmask 10111110
          30 callsubr
          hintmask 01111110
          75 -802 rmoveto
          -47 callgsubr
          hintmask 10111110
          -98 callgsubr
          endchar
        </CharString>
        <CharString name="Gcommaaccent">
          95 -138 98 28 123 -90 -21 254 119 202 123 16 callgsubr
          hintmask 00000000
          hintmask 00111110
          558 hmoveto
          -47 callgsubr
          hintmask 01011110
          -98 callgsubr
          -323 -306 rmoveto
          73 hlineto
          hintmask 11011110
          -70 callgsubr
        </CharString>
        <CharString name="Gdotaccent">
          -28 callgsubr
          41 130 16 callgsubr
          hintmask 10111110
          408 739 -96 callsubr
          hintmask 01111110
          127 -869 rmoveto
          -47 callgsubr
          hintmask 10111110
          -98 callgsubr
          endchar
        </CharString>
        <CharString name="H">
          39 21 -11 callsubr
          endchar
        </CharString>
        <CharString name="Hbar">
          39 21 -21 289 125 93 91 -91 179 hstemhm
          9 753 hintmask 11011000
          452 hmoveto
          145 hlineto
          89 507 rlineto
          60 hlineto
          hintmask 11101000
          16 91 rlineto
          -60 72 callgsubr
          -298 72 callgsubr
          -60 hlineto
          hintmask 11011000
          -16 -91 rlineto
          60 hlineto
          -89 -507 rlineto
          145 hlineto
          51 289 rlineto
          298 hlineto
          38 218 rmoveto
          -16 -93 rlineto
          -298 hlineto
          16 93 rlineto
          endchar
        </CharString>
        <CharString name="Hcircumflex">
          39 21 -21 289 125 272 -20 67 135 hstem
          9 709 vstem
          500 -83 callgsubr
          -3 -802 rmoveto
          2 callgsubr
          endchar
        </CharString>
        <CharString name="I">
          11 callsubr
          hstem
          9 266 73 callgsubr
          endchar
        </CharString>
        <CharString name="IJ">
          151 76 callsubr
          hstemhm
          273 146 hintmask 10110000
          9 hmoveto
          hintmask 01110000
          -73 callsubr
          558 hmoveto
          hintmask 10110000
          -85 callgsubr
        </CharString>
        <CharString name="Iacute">
          -405 26 callsubr
          9 388 vstem
          266 736 -102 callsubr
          -147 -736 -53 callgsubr
        </CharString>
        <CharString name="Iacute_J.loclNLD">
          151 76 callsubr
          70 132 hstemhm
          273 146 hintmask 10111000
          266 736 -102 callsubr
          668 hmoveto
          131 129 57 callsubr
          hintmask 01111000
          -705 -736 -50 callsubr
          558 hmoveto
          hintmask 10111000
          -85 callgsubr
        </CharString>
        <CharString name="Ibreve">
          11 callsubr
          65 89 hstemhm
          9 376 -325 92 hintmask 11110000
          385 868 rmoveto
          -90 hlineto
          hintmask 11101000
          -40 callgsubr
          -97 callgsubr
          hintmask 11110000
          -52 callgsubr
          -376 -868 -53 callgsubr
        </CharString>
        <CharString name="Icircumflex">
          11 callsubr
          67 135 hstem
          9 361 vstem
          264 -83 callgsubr
          -210 -802 -53 callgsubr
        </CharString>
        <CharString name="Idieresis">
          11 callsubr
          84 118 hstem
          9 391 vstem
          51 -70 callsubr
          -272 -868 -53 callgsubr
        </CharString>
        <CharString name="Idotaccent">
          11 callsubr
          73 130 hstem
          9 293 vstem
          144 739 -96 callsubr
          -158 -869 -53 callgsubr
        </CharString>
        <CharString name="Igrave">
          -405 26 callsubr
          9 266 vstem
          161 736 -84 callsubr
          -67 -865 -53 callgsubr
        </CharString>
        <CharString name="Imacron">
          11 callsubr
          90 88 hstem
          9 375 vstem
          64 756 -65 callgsubr
          -70 -844 -53 callgsubr
        </CharString>
        <CharString name="Iogonek">
          -405 -182 69 134 -21 686 -20 hstem
          -21 112 vstem
          145 -168 rmoveto
          66 callsubr
          29 18 28 18 18 hvcurveto
          27 hlineto
          121 686 rlineto
          -145 -17 callsubr
          27 hlineto
          -29 -25 -28 -33 -47 -9 callsubr
          endchar
        </CharString>
        <CharString name="Itilde">
          11 callsubr
          80 122 hstem
          9 393 vstem
          402 868 -100 callsubr
          -393 -868 -53 callgsubr
        </CharString>
        <CharString name="J">
          -12 122 576 -20 hstem
          -5 146 vstem
          410 686 rmoveto
          -85 callgsubr
        </CharString>
        <CharString name="Jcircumflex">
          -12 122 576 -20 67 135 hstem
          -5 146 vstem
          544 -83 callgsubr
          -89 -116 rmoveto
          -85 callgsubr
        </CharString>
        <CharString name="K">
          39 21 -7 callgsubr
          endchar
        </CharString>
        <CharString name="Kcommaaccent">
          39 -138 98 61 -7 callgsubr
          -134 -537 rmoveto
          73 hlineto
          -70 callgsubr
        </CharString>
        <CharString name="L">
          -72 0 126 560 -20 hstem
          9 537 vstem
          9 hmoveto
          -32 callsubr
          endchar
        </CharString>
        <CharString name="Lacute">
          -72 0 126 560 71 callsubr
          9 537 vstem
          266 736 -102 callsubr
          -147 -736 rmoveto
          -32 callsubr
          endchar
        </CharString>
        <CharString name="Lcaron">
          -72 0 126 433 127 hstem
          9 537 vstem
          9 hmoveto
          -32 callsubr
          215 -244 rmoveto
          72 hlineto
          89 129 11 callgsubr
          53 hlineto
          endchar
        </CharString>
        <CharString name="Lcommaaccent">
          -72 -138 98 40 126 560 -20 hstem
          9 537 vstem
          9 hmoveto
          -32 callsubr
          29 -916 rmoveto
          73 hlineto
          -70 callgsubr
        </CharString>
        <CharString name="Ldot">
          -72 0 126 263 137 160 -20 hstem
          9 537 vstem
          9 hmoveto
          -32 callsubr
          208 -297 rmoveto
          -14 callsubr
          endchar
        </CharString>
        <CharString name="Lslash">
          -72 0 126 411 -20 169 -20 hstem
          -21 567 vstem
          9 hmoveto
          -1 callgsubr
          38 216 158 93 18 102 -158 -93 43 242 -61 callsubr
          -60 -338 -73 -44 -18 -102 73 44 rlineto
          endchar
        </CharString>
        <CharString name="M">
          150 0 153 -132 -21 547 139 hstemhm
          9 820 hintmask 01110000
          563 hmoveto
          145 hlineto
          121 686 rlineto
          -226 hlineto
          -163 -378 rlineto
          hintmask 10110000
          -17 -40 -38 -115 0 vvcurveto
          -5 hlineto
          0 -1 110 -4 45 vhcurveto
          -29 378 rlineto
          -216 -17 callsubr
          140 hlineto
          77 437 rlineto
          5 27 8 83 0 vvcurveto
          5 hlineto
          38 -547 rlineto
          143 hlineto
          235 547 rlineto
          5 hlineto
          0 -19 -79 -6 -31 vhcurveto
          endchar
        </CharString>
        <CharString name="N">
          39 21 66 callgsubr
          -21 callgsubr
          endchar
        </CharString>
        <CharString name="NULL">
          -683 endchar
        </CharString>
        <CharString name="Nacute">
          39 26 callsubr
          9 709 vstem
          502 736 -102 callsubr
          64 -736 rmoveto
          141 hlineto
          121 686 -99 callsubr
          endchar
        </CharString>
        <CharString name="Nacute.loclPLK">
          39 26 callsubr
          9 709 vstem
          383 736 -49 callgsubr
          24 -868 rmoveto
          141 hlineto
          121 686 -99 callsubr
          endchar
        </CharString>
        <CharString name="Ncaron">
          70 callgsubr
          67 135 hstem
          9 709 vstem
          386 733 -98 callsubr
          152 -868 rmoveto
          141 hlineto
          121 686 -99 callsubr
          endchar
        </CharString>
        <CharString name="Ncommaaccent">
          39 -138 98 61 66 callgsubr
          -21 callgsubr
          -53 -621 rmoveto
          73 hlineto
          -70 callgsubr
        </CharString>
        <CharString name="Ntilde">
          70 callgsubr
          80 122 hstem
          9 709 vstem
          638 868 -100 callsubr
          -182 -868 rmoveto
          141 hlineto
          121 686 -99 callsubr
          endchar
        </CharString>
        <CharString name="O">
          -51 callgsubr
          hstem
          -61 callgsubr
          vstem
          347 -12 -107 callsubr
          endchar
        </CharString>
        <CharString name="OE">
          317 -12 123 -111 -71 callsubr
          -111 123 hstemhm
          31 150 hintmask 01110100
          429 hmoveto
          455 -76 callsubr
          -310 hlineto
          29 166 rlineto
          260 -76 callsubr
          -260 hlineto
          26 151 rlineto
          304 -76 callsubr
          -449 hlineto
          hintmask 10101100
          -10 -54 rlineto
          45 -42 -59 21 -79 hhcurveto
          -161 -119 -123 -232 -38 hvcurveto
          -7 -40 -4 -37 -34 vvcurveto
          -160 83 -84 146 65 60 21 44 53 vhcurveto
          -141 58 rmoveto
          -80 -36 45 92 28 4 31 6 36 hvcurveto
          156 28 58 76 111 hhcurveto
          69 42 -40 -101 -26 -3 -30 -6 -35 hvcurveto
          -170 -31 -69 -62 -93 hhcurveto
          endchar
        </CharString>
        <CharString name="Oacute">
          -29 callgsubr
          530 736 -102 callsubr
          -73 -748 -107 callsubr
          endchar
        </CharString>
        <CharString name="Oacute.loclPLK">
          -29 callgsubr
          411 736 -49 callgsubr
          -113 -880 -107 callsubr
          endchar
        </CharString>
        <CharString name="Obreve">
          -51 callgsubr
          33 89 hstem
          34 149 141 92 181 150 vstem
          649 868 rmoveto
          -90 hlineto
          -40 callgsubr
          -97 callgsubr
          -52 callgsubr
          -302 -880 -107 callsubr
          endchar
        </CharString>
        <CharString name="Ocircumflex">
          25 callsubr
          hstem
          -61 callgsubr
          vstem
          30 callsubr
          -136 -814 -107 callsubr
          endchar
        </CharString>
        <CharString name="Odieresis">
          -51 callgsubr
          52 118 hstem
          -61 callgsubr
          vstem
          315 -70 callsubr
          -198 -880 -107 callsubr
          endchar
        </CharString>
        <CharString name="Ograve">
          -29 callgsubr
          425 736 -84 callsubr
          7 -877 -107 callsubr
          endchar
        </CharString>
        <CharString name="Ohorn">
          -51 callgsubr
          -7 137 90 callsubr
          hintmask 10111000
          739 828 -54 callgsubr
          hintmask 11011000
          -89 callgsubr
          hintmask 10111000
          -71 callgsubr
          hintmask 11011000
          136 23 83 81 133 hhcurveto
          110 54 -58 -99 hvcurveto
          hintmask 10111000
          -40 callsubr
          vhcurveto
          endchar
        </CharString>
        <CharString name="Ohungarumlaut">
          -29 callgsubr
          440 13 callgsubr
          -163 -748 -107 callsubr
          endchar
        </CharString>
        <CharString name="Omacron">
          -51 callgsubr
          58 88 hstem
          -61 callgsubr
          vstem
          328 756 -65 callgsubr
          4 -856 -107 callsubr
          endchar
        </CharString>
        <CharString name="Omega">
          -60 callsubr
        </CharString>
        <CharString name="Oslash">
          -51 callgsubr
          37 -20 hstem
          -61 callgsubr
          vstem
          -22 -49 14 callgsubr
          -52 callsubr
        </CharString>
        <CharString name="Oslashacute">
          -51 callgsubr
          37 -20 22 132 90 callsubr
          hintmask 11011100
          482 737 -102 callsubr
          -394 -786 14 callgsubr
          hintmask 11101100
          -52 callsubr
        </CharString>
        <CharString name="Otilde">
          -51 callgsubr
          48 122 hstem
          -61 callgsubr
          vstem
          666 868 -100 callsubr
          -319 -880 -107 callsubr
          endchar
        </CharString>
        <CharString name="P">
          -16 21 -21 236 123 204 123 hstem
          504 149 vstem
          9 hmoveto
          145 hlineto
          42 236 rlineto
          55 callsubr
          -267 hlineto
          236 -327 40 callsubr
        </CharString>
        <CharString name="Q">
          -51 callgsubr
          hstem
          -61 callgsubr
          vstem
          461 -130 rmoveto
          175 hlineto
          -129 148 rlineto
          157 65 83 163 183 vvcurveto
          182 -117 87 -198 -108 -90 -34 -59 -65 vhcurveto
          -90 -82 -45 -128 -138 vvcurveto
          -65 callsubr
          vhcurveto
          11 1 rlineto
          228 339 rmoveto
          -136 -24 -85 -81 -138 hhcurveto
          -104 -52 57 100 18 2 20 9 52 hvcurveto
          136 24 85 81 137 hhcurveto
          105 52 -58 -99 -40 callsubr
          hvcurveto
          endchar
        </CharString>
        <CharString name="R">
          39 21 -33 callsubr
          endchar
        </CharString>
        <CharString name="Racute">
          25 callgsubr
          50 132 hstem
          542 150 vstem
          502 736 -102 callsubr
          79 -736 rmoveto
          -92 callsubr
          endchar
        </CharString>
        <CharString name="Rcaron">
          25 callgsubr
          47 135 hstem
          542 150 vstem
          386 733 -98 callsubr
          167 -868 rmoveto
          -92 callsubr
          endchar
        </CharString>
        <CharString name="Rcommaaccent">
          39 -138 98 61 -33 callsubr
          -13 -607 rmoveto
          73 hlineto
          -70 callgsubr
        </CharString>
        <CharString name="S">
          -16 -69 callsubr
          -35 callsubr
          hintmask 00000000
          hintmask 11010100
          21 callsubr
          hintmask 11011000
          -213 365 53 -125 vvcurveto
          -47 -40 -37 -113 vhcurveto
          hintmask 11101000
          -86 -47 31 49 10 4 15 1 7 hvcurveto
          -147 hlineto
          -4 -15 -4 -23 -18 vvcurveto
          -119 129 -60 165 144 150 62 175 vhcurveto
          hintmask 11011000
          212 -368 -44 109 vvcurveto
          45 52 28 90 vhcurveto
          hintmask 11100100
          72 43 -26 -43 hvcurveto
          hintmask 11010100
          -4 0 -5 -3 -13 vhcurveto
          endchar
        </CharString>
        <CharString name="Sacute">
          -16 -20 callgsubr
          -35 callsubr
          hintmask 11110100
          475 736 -102 callsubr
          hintmask 11101010
          125 -252 -95 callsubr
          endchar
        </CharString>
        <CharString name="Sacute.loclPLK">
          -16 -20 callgsubr
          -35 callsubr
          hintmask 11110100
          356 736 -49 callgsubr
          hintmask 11101010
          85 -384 -95 callsubr
          endchar
        </CharString>
        <CharString name="Scaron">
          -16 92 callgsubr
          -35 callsubr
          hintmask 11110100
          359 733 -98 callsubr
          hintmask 11101010
          213 -384 -95 callsubr
          endchar
        </CharString>
        <CharString name="Scedilla">
          -16 38 callgsubr
          23 121 464 123 hstemhm
          16 150 -79 149 83 108 25 152 -111 146 hintmask 0000000000000000
          hintmask 1011110110000000
          240 -77 rmoveto
          -23 callgsubr
          hintmask 0101110010000000
          -9 -49 rlineto
          hintmask 1011110110000000
          -14 callgsubr
          7 23 rlineto
          hintmask 1001101010000000
          131 10 126 65 160 212 -368 -44 109 vvcurveto
          45 52 28 90 vhcurveto
          hintmask 1001101001000000
          72 43 -26 -43 -4 0 -5 -3 -13 hvcurveto
          144 hlineto
          4 25 1 13 12 vvcurveto
          114 -115 50 -152 -157 -128 -71 -147 vhcurveto
          hintmask 1001101010000000
          -213 365 53 -125 vvcurveto
          -47 -40 -37 -113 vhcurveto
          hintmask 1001110010000000
          -86 -47 31 49 10 4 15 1 7 hvcurveto
          -147 hlineto
          -4 -15 -4 -23 -18 vvcurveto
          -107 104 -60 142 -10 vhcurveto
          endchar
        </CharString>
        <CharString name="Scircumflex">
          -16 92 callgsubr
          -35 callsubr
          hintmask 11110100
          -26 callsubr
          hintmask 11101010
          62 -318 -95 callsubr
          endchar
        </CharString>
        <CharString name="Scommaaccent">
          -16 -138 98 28 -74 callsubr
          -35 callsubr
          hintmask 00000000
          hintmask 01101010
          21 callsubr
          hintmask 01101100
          -213 365 53 -125 vvcurveto
          -47 -40 -37 -113 vhcurveto
          hintmask 01110100
          -86 -47 31 49 10 4 15 1 7 hvcurveto
          -147 hlineto
          -4 -15 -4 -23 -18 vvcurveto
          -119 129 -60 165 144 150 62 175 vhcurveto
          hintmask 01101100
          212 -368 -44 109 vvcurveto
          45 52 28 90 vhcurveto
          hintmask 01110010
          72 43 -26 -43 hvcurveto
          hintmask 01101010
          -4 0 -5 -3 -13 vhcurveto
          -310 -714 rmoveto
          73 hlineto
          hintmask 11110100
          -70 callgsubr
        </CharString>
        <CharString name="T">
          -72 21 -28 callsubr
          endchar
        </CharString>
        <CharString name="Tbar">
          -72 21 -21 352 91 118 125 88 callsubr
          176 hmoveto
          145 hlineto
          62 352 rlineto
          89 hlineto
          16 91 rlineto
          -89 hlineto
          21 118 -5 callsubr
          -21 -118 rlineto
          -89 hlineto
          -16 -91 rlineto
          89 hlineto
          endchar
        </CharString>
        <CharString name="Tcaron">
          -72 21 -21 561 125 47 135 88 callsubr
          311 733 -98 callsubr
          -53 -868 rmoveto
          145 hlineto
          99 561 -5 callsubr
          endchar
        </CharString>
        <CharString name="Thorn">
          -16 21 -21 129 123 204 123 107 -20 hstem
          485 149 vstem
          177 129 rmoveto
          55 callsubr
          -122 hlineto
          19 107 rlineto
          -145 -44 callsubr
          193 252 40 callsubr
        </CharString>
        <CharString name="U">
          -31 callgsubr
          60 callgsubr
          577 686 rmoveto
          -106 callsubr
          76 431 rlineto
          endchar
        </CharString>
        <CharString name="Uacute">
          65 callgsubr
          502 736 -102 callsubr
          185 -50 rmoveto
          -106 callsubr
          76 431 rlineto
          endchar
        </CharString>
        <CharString name="Ubreve">
          78 callgsubr
          89 50 callgsubr
          96 92 vstem
          621 868 rmoveto
          -90 hlineto
          -40 callgsubr
          -97 callgsubr
          -52 callgsubr
          -44 -182 rmoveto
          -106 callsubr
          76 431 rlineto
          endchar
        </CharString>
        <CharString name="Ucircumflex">
          -31 callgsubr
          67 135 60 callgsubr
          500 -83 callgsubr
          122 -116 rmoveto
          -106 callsubr
          76 431 rlineto
          endchar
        </CharString>
        <CharString name="Udieresis">
          -31 callgsubr
          84 118 60 callgsubr
          287 -70 callsubr
          60 -182 rmoveto
          -106 callsubr
          76 431 rlineto
          endchar
        </CharString>
        <CharString name="Ugrave">
          65 callgsubr
          397 736 -84 callsubr
          265 -179 rmoveto
          -106 callsubr
          76 431 rlineto
          endchar
        </CharString>
        <CharString name="Uhorn">
          94 callgsubr
          60 callgsubr
          -91 callgsubr
          endchar
        </CharString>
        <CharString name="Uhungarumlaut">
          65 callgsubr
          412 13 callgsubr
          95 -50 rmoveto
          -106 callsubr
          76 431 rlineto
          endchar
        </CharString>
        <CharString name="Umacron">
          -31 callgsubr
          90 88 60 callgsubr
          300 756 -65 callgsubr
          262 -158 rmoveto
          -106 callsubr
          76 431 rlineto
          endchar
        </CharString>
        <CharString name="Uogonek">
          39 -182 69 101 -16 callsubr
          50 callgsubr
          77 112 vstem
          443 -168 rmoveto
          66 callsubr
          28 18 28 17 18 hvcurveto
          123 28 74 86 25 142 76 431 rcurveline
          -20 callsubr
          -75 -424 rlineto
          -100 -18 -64 -51 -94 hhcurveto
          -86 -40 38 74 12 3 21 1 6 hvcurveto
          75 424 -61 callsubr
          -74 -423 rlineto
          -4 -22 -2 -22 -19 vvcurveto
          -141 97 -70 170 -1 vhcurveto
          -24 -23 -20 76 callgsubr
          endchar
        </CharString>
        <CharString name="Uring">
          -31 callgsubr
          35 57 88 57 hstemhm
          54 146 154 58 90 57 hintmask 00000000
          hintmask 11111110
          444 701 -78 callgsubr
          hintmask 11011110
          75 -124 rmoveto
          -106 callsubr
          76 431 rlineto
          endchar
        </CharString>
        <CharString name="Utilde">
          -31 callgsubr
          80 122 60 callgsubr
          638 868 -100 callsubr
          -61 -182 rmoveto
          -106 callsubr
          76 431 rlineto
          endchar
        </CharString>
        <CharString name="V">
          -16 0 168 -147 -21 686 -20 hstemhm
          71 658 hintmask 01110000
          198 hmoveto
          162 hlineto
          369 686 rlineto
          -156 hlineto
          -194 -376 rlineto
          hintmask 10110000
          -18 -34 -52 -108 0 vvcurveto
          -5 hlineto
          0 -16 108 -6 34 vhcurveto
          -63 376 rlineto
          -148 hlineto
          endchar
        </CharString>
        <CharString name="W">
          10 callgsubr
          hstemhm
          66 938 hintmask 10110000
          538 hmoveto
          163 hlineto
          303 686 rlineto
          -147 hlineto
          -176 -422 rlineto
          -14 -34 -16 -62 0 vvcurveto
          -5 hlineto
          0 0 69 -2 27 vhcurveto
          -26 422 rlineto
          -175 hlineto
          -175 -422 rlineto
          -12 -29 -18 -67 0 vvcurveto
          -5 hlineto
          0 0 66 -2 30 vhcurveto
          -29 422 rlineto
          -136 hlineto
          53 -19 callsubr
          163 hlineto
          hintmask 11010000
          188 437 rlineto
          12 29 19 68 0 vvcurveto
          4 hlineto
          0 1 -62 2 -35 vhcurveto
          endchar
        </CharString>
        <CharString name="Wacute">
          10 callgsubr
          70 132 hstemhm
          66 938 hintmask 10111000
          613 736 -102 callsubr
          35 -736 -88 callsubr
        </CharString>
        <CharString name="Wcircumflex">
          10 callgsubr
          67 135 hstemhm
          66 938 hintmask 10111000
          611 -83 callgsubr
          -28 -802 -88 callsubr
        </CharString>
        <CharString name="Wdieresis">
          10 callgsubr
          84 118 hstemhm
          66 938 hintmask 10111000
          398 -70 callsubr
          -90 -868 -88 callsubr
        </CharString>
        <CharString name="Wgrave">
          10 callgsubr
          70 132 hstemhm
          66 938 hintmask 10111000
          508 736 -84 callsubr
          115 -865 -88 callsubr
        </CharString>
        <CharString name="X">
          71 callgsubr
          hstem
          -60 764 vstem
          443 hmoveto
          162 hlineto
          -186 354 285 332 rlineto
          -177 hlineto
          -174 -208 rlineto
          -5 hlineto
          -103 208 rlineto
          -163 hlineto
          170 -321 -312 -365 rlineto
          178 hlineto
          200 239 rlineto
          5 hlineto
          endchar
        </CharString>
        <CharString name="Y">
          71 callgsubr
          hstem
          62 667 vstem
          203 hmoveto
          -85 callsubr
          endchar
        </CharString>
        <CharString name="Y.loclGUA">
          -1 callsubr
          hstemhm
          33 148 -101 148 hintmask 11101000
          439 286 rmoveto
          7 hlineto
          -10 -54 rlineto
          -80 -14 -57 -41 -83 hhcurveto
          hintmask 11110000
          -72 -29 17 40 hvcurveto
          -148 -9 hlineto
          -114 91 -57 156 163 113 90 176 29 vhcurveto
          77 432 -61 callsubr
          -31 -174 rlineto
          hintmask 11101000
          -119 -21 -59 -62 -87 hhcurveto
          -58 -33 28 54 9 1 10 2 10 hvcurveto
          43 244 -61 callsubr
          -43 -241 rlineto
          -4 -24 -2 -22 -21 vvcurveto
          -108 57 -62 122 74 61 23 55 45 vhcurveto
          endchar
        </CharString>
        <CharString name="Yacute">
          -16 26 callsubr
          62 667 vstem
          475 736 -102 callsubr
          -162 -736 rmoveto
          -85 callsubr
          endchar
        </CharString>
        <CharString name="Yacute.loclGUA">
          -1 callsubr
          70 132 14 callsubr
          475 736 -102 callsubr
          74 -450 -97 callsubr
        </CharString>
        <CharString name="Ycircumflex">
          71 callgsubr
          67 135 hstem
          62 667 28 callgsubr
          -225 -802 rmoveto
          -85 callsubr
          endchar
        </CharString>
        <CharString name="Ycircumflex.loclGUA">
          -1 callsubr
          67 135 14 callsubr
          -26 callsubr
          11 -516 -97 callsubr
        </CharString>
        <CharString name="Ydieresis">
          71 callgsubr
          84 118 hstem
          62 667 vstem
          260 -70 callsubr
          -287 -868 rmoveto
          -85 callsubr
          endchar
        </CharString>
        <CharString name="Ydieresis.loclGUA">
          -1 callsubr
          84 118 14 callsubr
          260 -70 callsubr
          -51 -582 -97 callsubr
        </CharString>
        <CharString name="Ygrave">
          -16 26 callsubr
          62 667 vstem
          370 736 -84 callsubr
          -82 -865 rmoveto
          -85 callsubr
          endchar
        </CharString>
        <CharString name="Ygrave.loclGUA">
          -1 callsubr
          70 132 14 callsubr
          370 736 -84 callsubr
          154 -579 -97 callsubr
        </CharString>
        <CharString name="Z">
          51 callsubr
          hstem
          -38 680 vstem
          -38 hmoveto
          -81 callgsubr
          endchar
        </CharString>
        <CharString name="Zacute">
          51 callsubr
          50 132 hstem
          -38 680 vstem
          447 736 -102 callsubr
          -375 -736 rmoveto
          -81 callgsubr
          endchar
        </CharString>
        <CharString name="Zacute.loclPLK">
          51 callsubr
          50 132 hstem
          -38 680 vstem
          328 736 -49 callgsubr
          -415 -868 rmoveto
          -81 callgsubr
          endchar
        </CharString>
        <CharString name="Zcaron">
          51 callsubr
          47 135 hstem
          -38 680 vstem
          331 733 -98 callsubr
          -287 -868 rmoveto
          -81 callgsubr
          endchar
        </CharString>
        <CharString name="Zdotaccent">
          51 callsubr
          53 130 hstem
          -38 680 vstem
          325 739 -96 callsubr
          -386 -869 rmoveto
          -81 callgsubr
          endchar
        </CharString>
        <CharString name="a">
          -77 callsubr
          27 callgsubr
          hintmask 01101000
          525 4 rmoveto
          hintmask 10011000
          -93 callgsubr
          hintmask 01101000
          -104 callgsubr
          endchar
        </CharString>
        <CharString name="aacute">
          -77 callsubr
          85 43 callsubr
          hintmask 01101100
          382 591 -102 callsubr
          253 -587 rmoveto
          hintmask 10011100
          -93 callgsubr
          hintmask 01101100
          -104 callgsubr
          endchar
        </CharString>
        <CharString name="abreve">
          -25 callsubr
          82 callsubr
          hintmask 01100110
          501 60 callsubr
          hintmask 01101011
          -40 callgsubr
          hintmask 01100111
          -97 callgsubr
          hintmask 01100110
          10 callsubr
          hintmask 10010110
          -93 callgsubr
          hintmask 01100110
          -104 callgsubr
          endchar
        </CharString>
        <CharString name="acircumflex">
          -77 callsubr
          82 135 -66 66 27 callgsubr
          hintmask 01101010
          380 588 -103 callgsubr
          hintmask 01100110
          35 callsubr
          hintmask 10011010
          -93 callgsubr
          hintmask 01101010
          -31 -61 rlineto
          -6 hlineto
          47 -31 -45 26 -73 hhcurveto
          -169 -66 -202 -140 -137 69 -71 103 61 57 29 52 38 hvcurveto
          6 hlineto
          -49 5 35 -32 52 hhcurveto
          hintmask 01100110
          39 28 9 7 15 hvcurveto
          hintmask 01101010
          -66 callgsubr
        </CharString>
        <CharString name="acute">
          68 callsubr
          58 241 vstem
          168 591 -102 callsubr
          endchar
        </CharString>
        <CharString name="acute.loclPLK">
          68 callsubr
          149 173 vstem
          149 591 -49 callgsubr
          endchar
        </CharString>
        <CharString name="adieresis">
          -77 callsubr
          99 118 27 callgsubr
          hintmask 01101100
          167 605 -101 callsubr
          128 -719 rmoveto
          hintmask 10011100
          -93 callgsubr
          hintmask 01101100
          -104 callgsubr
          endchar
        </CharString>
        <CharString name="ae">
          91 callsubr
          84 callgsubr
          hintmask 11110100
          492 231 17 callsubr
          hintmask 11101100
          17 callgsubr
          hintmask 11110100
          -48 callsubr
        </CharString>
        <CharString name="aeacute">
          91 callsubr
          53 132 84 callgsubr
          hintmask 11111010
          557 591 -102 callsubr
          45 -360 17 callsubr
          hintmask 11110110
          17 callgsubr
          hintmask 11111010
          -48 callsubr
        </CharString>
        <CharString name="agrave">
          -77 callsubr
          85 43 callsubr
          hintmask 01101100
          277 591 -84 callsubr
          333 -716 rmoveto
          hintmask 10011100
          -93 callgsubr
          hintmask 01101100
          -104 callgsubr
          endchar
        </CharString>
        <CharString name="amacron">
          -77 callsubr
          105 88 27 callgsubr
          hintmask 01101100
          180 611 -65 callgsubr
          330 -695 rmoveto
          hintmask 10011100
          -93 callgsubr
          hintmask 01101100
          -104 callgsubr
          endchar
        </CharString>
        <CharString name="ampersand">
          39 -12 111 193 112 183 111 hstemhm
          30 145 -70 137 264 141 hintmask 11110100
          606 292 rmoveto
          95 hlineto
          19 112 rlineto
          -232 hlineto
          -36 -203 rlineto
          -65 -12 -53 -37 -98 hhcurveto
          -74 -40 25 52 95 77 21 68 hvcurveto
          66 hlineto
          19 112 rlineto
          hintmask 11101100
          -69 hlineto
          -53 -41 26 46 68 57 43 95 75 37 -23 -46 -5 0 -6 -4 -25 hvcurveto
          -24 callgsubr
          7 38 1 10 10 vvcurveto
          97 -99 61 -153 -162 -128 -75 -136 -69 41 -35 58 -27 vhcurveto
          -1 -4 rlineto
          hintmask 11110100
          -96 -18 -77 -66 -114 vvcurveto
          -107 103 -59 165 169 99 85 131 24 vhcurveto
          endchar
        </CharString>
        <CharString name="aogonek">
          -92 -182 69 101 119 -92 -21 429 115 -12 -20 27 callgsubr
          171 111 hintmask 11010110
          495 -168 rmoveto
          10 55 rlineto
          -23 hlineto
          -27 -14 11 21 35 45 32 39 18 hvcurveto
          17 96 rlineto
          -29 hlineto
          -15 -14 8 19 hvcurveto
          hintmask 11001110
          5 3 15 67 379 vhcurveto
          -116 hlineto
          hintmask 11010110
          -31 -61 rlineto
          -6 hlineto
          47 -31 -45 26 -73 hhcurveto
          -169 -66 -202 -140 -137 69 -71 103 61 57 29 52 38 hvcurveto
          6 hlineto
          hintmask 10110110
          4 -37 20 -28 33 -10 rrcurveto
          -46 -23 -32 -31 -45 vvcurveto
          -58 46 -19 46 vhcurveto
          hintmask 11010110
          24 22 5 9 27 hvcurveto
          -253 275 rmoveto
          -58 -25 34 63 75 25 144 109 55 29 -34 -67 -73 -32 -142 -103 hvcurveto
          endchar
        </CharString>
        <CharString name="approxequal">
          -134 53 120 -59 120 30 120 -59 120 hstemhm
          -16 565 hintmask 00000000
          hintmask 01101000
          528 337 40 callgsubr
          -21 -120 rlineto
          0 72 73 84 vhcurveto
          hintmask 01101000
          93 callgsubr
          hintmask 10011000
          -37 -211 40 callgsubr
          -20 -120 rlineto
          0 71 73 84 vhcurveto
          hintmask 10011000
          93 callgsubr
          endchar
        </CharString>
        <CharString name="aring">
          -77 callsubr
          50 57 88 57 27 callgsubr
          75 58 90 57 hintmask 0000000000000000
          hintmask 0110111110000000
          324 556 -78 callgsubr
          143 -661 rmoveto
          hintmask 1001011110000000
          -93 callgsubr
          hintmask 0110011110000000
          -31 -61 rlineto
          -6 hlineto
          47 -31 -45 26 -73 hhcurveto
          -169 -66 -202 -140 -137 69 -71 103 61 57 29 52 38 hvcurveto
          6 hlineto
          -49 5 35 -32 52 hhcurveto
          hintmask 0110111110000000
          39 28 9 7 15 hvcurveto
          hintmask 0110011110000000
          -66 callgsubr
        </CharString>
        <CharString name="aringacute">
          -77 callsubr
          50 57 88 57 19 43 callsubr
          75 58 90 57 hintmask 0110001111000000
          414 777 -102 callsubr
          hintmask 0110111111000000
          20 -221 -78 callgsubr
          143 -661 rmoveto
          hintmask 1001001111000000
          -93 callgsubr
          hintmask 0110001111000000
          -31 -61 rlineto
          -6 hlineto
          47 -31 -45 26 -73 hhcurveto
          -169 -66 -202 -140 -137 69 -71 103 61 57 29 52 38 hvcurveto
          6 hlineto
          -49 5 35 -32 52 hhcurveto
          hintmask 0110111111000000
          39 28 9 7 15 hvcurveto
          hintmask 0110001111000000
          -66 callgsubr
        </CharString>
        <CharString name="arrowboth">
          317 198 109 hstem
          28 921 vstem
          726 69 rmoveto
          220 173 3 21 -166 173 rlineto
          -52 hlineto
          30 -129 rlineto
          -526 hlineto
          76 129 86 callsubr
          -173 rlineto
          52 hlineto
          -30 129 rlineto
          526 hlineto
          -76 -129 rlineto
          endchar
        </CharString>
        <CharString name="arrowdown">
          -183 11 -21 hstem
          9 376 vstem
          169 -207 58 callgsubr
          127 722 rlineto
          -109 hlineto
          -127 -722 59 callgsubr
          endchar
        </CharString>
        <CharString name="arrowleft">
          317 198 108 hstem
          23 929 vstem
          211 198 rmoveto
          722 hlineto
          19 108 rlineto
          -722 hlineto
          76 130 86 callsubr
          -174 61 callgsubr
        </CharString>
        <CharString name="arrowright">
          317 198 108 hstem
          18 929 vstem
          724 68 rmoveto
          220 173 3 21 -166 174 rlineto
          -52 hlineto
          30 -130 rlineto
          -722 hlineto
          -19 -108 rlineto
          722 hlineto
          -76 -130 rlineto
          endchar
        </CharString>
        <CharString name="arrowup">
          -183 -207 918 hstem
          88 376 vstem
          99 -207 rmoveto
          109 hlineto
          127 722 3 callgsubr
          rlineto
          endchar
        </CharString>
        <CharString name="arrowupdn">
          -183 11 -21 hstem
          6 460 vstem
          166 -207 58 callgsubr
          93 526 3 callgsubr
          -93 -526 59 callgsubr
          endchar
        </CharString>
        <CharString name="arrowupdnbse">
          -183 -233 86 hstem
          -27 498 vstem
          190 -100 58 callgsubr
          74 419 3 callgsubr
          -74 -419 59 callgsubr
          -196 -133 rmoveto
          366 hlineto
          15 86 rlineto
          -366 hlineto
          endchar
        </CharString>
        <CharString name="asciicircum">
          -214 564 122 0 -20 hstemhm
          17 419 hintmask 01100000
          330 294 rmoveto
          106 hlineto
          -88 392 rlineto
          -107 hlineto
          -224 -392 rlineto
          113 hlineto
          hintmask 10100000
          147 270 rlineto
          endchar
        </CharString>
        <CharString name="asciitilde">
          -99 211 119 -59 119 hstemhm
          23 537 hintmask 00000000
          hintmask 10100000
          539 283 rmoveto
          21 119 rlineto
          0 -72 -72 -85 vhcurveto
          hintmask 01100000
          -78 -48 60 -76 hhcurveto
          -97 -60 -72 0 hvcurveto
          -21 -119 rlineto
          0 72 72 85 vhcurveto
          hintmask 10100000
          78 48 -60 76 hhcurveto
          97 60 72 0 hvcurveto
          endchar
        </CharString>
        <CharString name="asterisk">
          -294 686 -20 hstemhm
          196 47 -30 47 hintmask 00000000
          hintmask 11000000
          245 481 rmoveto
          83 -74 53 71 -103 46 120 47 -29 70 rlineto
          hintmask 10100000
          -109 -73 38 118 rlineto
          -83 hlineto
          -4 -119 -83 74 -53 -70 104 -47 -121 -46 29 -71 rlineto
          hintmask 11000000
          109 74 -38 -119 rlineto
          83 hlineto
          endchar
        </CharString>
        <CharString name="at">
          292 -153 77 97 109 -108 101 293 105 100 77 hstemhm
          29 87 123 129 485 86 hintmask 10111111
          602 -139 rmoveto
          11 81 rlineto
          0 -77 -18 -105 -242 -73 125 170 273 156 129 272 200 109 -93 -149 -129 -59 -127 -94 -26 -11 7 18 4 2 15 62 343 vhcurveto
          -106 hlineto
          -27 -56 rlineto
          -6 hlineto
          43 -28 -41 24 -67 hhcurveto
          -153 -60 -183 -128 hvcurveto
          hintmask 11011111
          -124 63 -65 93 56 52 27 47 34 vhcurveto
          6 -5 hlineto
          hintmask 10111111
          -52 55 -16 48 212 81 198 159 197 -138 122 -257 -330 -185 -150 -336 -212 99 -153 303 80 58 9 5 33 vhcurveto
          hintmask 11011111
          -159 269 rmoveto
          -53 -22 30 57 69 22 130 100 50 27 -30 -61 -67 -30 -128 -94 hvcurveto
          endchar
        </CharString>
        <CharString name="atilde">
          -77 callsubr
          95 85 -48 85 27 callgsubr
          hintmask 01100110
          518 49 callsubr
          hintmask 01101010
          -41 callgsubr
          -47 -34 37 -51 hhcurveto
          -67 -35 -57 -65 -11 hvcurveto
          69 hlineto
          hintmask 01100110
          6 callgsubr
          hintmask 01101010
          47 34 -37 50 hhcurveto
          hintmask 01100110
          68 36 57 65 11 hvcurveto
          7 -719 rmoveto
          hintmask 10010110
          -93 callgsubr
          hintmask 01100110
          -104 callgsubr
          endchar
        </CharString>
        <CharString name="b">
          -72 -12 115 -82 -21 419 119 185 -20 hstemhm
          428 142 hintmask 00000000
          hintmask 01111000
          13 hmoveto
          117 hlineto
          hintmask 10111000
          21 69 rlineto
          7 hlineto
          -54 26 56 -27 74 hhcurveto
          190 66 202 141 142 -74 65 -108 -63 -52 -26 -47 -35 hvcurveto
          -6 hlineto
          45 258 -82 callsubr
          141 -620 rmoveto
          -59 -32 34 67 73 35 142 113 63 27 -34 -63 -75 -27 -144 -120 hvcurveto
          endchar
        </CharString>
        <CharString name="backslash">
          -405 735 -20 hstem
          74 137 vstem
          115 -49 rmoveto
          96 hlineto
          -42 784 rlineto
          -95 hlineto
          endchar
        </CharString>
        <CharString name="bar">
          75 callgsubr
          -173 rmoveto
          100 896 -100 hlineto
          endchar
        </CharString>
        <CharString name="braceleft">
          73 callsubr
          61 119 -80 111 hintmask 10111000
          256 -159 rmoveto
          13 77 rlineto
          -43 -46 8 42 hvcurveto
          hintmask 11110100
          8 31 193 29 vvcurveto
          54 -30 31 -81 vhcurveto
          1 10 rlineto
          hintmask 10110100
          107 26 40 68 14 hvcurveto
          14 67 16 63 12 66 rrcurveto
          51 9 58 10 43 hhcurveto
          13 77 rlineto
          -152 -69 -22 -126 -22 hvcurveto
          -34 -193 rlineto
          -45 -8 -53 -15 -46 hhcurveto
          hintmask 11110100
          -17 -92 rlineto
          43 45 -13 -38 hvcurveto
          hintmask 10111000
          -22 -39 -163 -50 vvcurveto
          -97 71 -18 124 vhcurveto
          endchar
        </CharString>
        <CharString name="braceright">
          73 callsubr
          158 111 -80 119 hintmask 11010100
          -31 -82 rmoveto
          -13 -77 rlineto
          hintmask 11011000
          152 69 22 126 22 hvcurveto
          34 193 rlineto
          45 8 53 15 46 hhcurveto
          hintmask 11111000
          17 92 rlineto
          -43 -45 13 38 hvcurveto
          hintmask 11010100
          22 39 163 50 vvcurveto
          97 -71 18 -124 vhcurveto
          -13 -77 rlineto
          43 46 -8 -42 hvcurveto
          hintmask 11111000
          -8 -31 -193 -29 vvcurveto
          -54 30 -31 81 vhcurveto
          -1 -10 rlineto
          hintmask 11011000
          -107 -26 -40 -68 -14 hvcurveto
          -14 -67 -16 -63 -12 -66 rrcurveto
          hintmask 11010100
          -51 -9 -58 -10 -43 hhcurveto
          endchar
        </CharString>
        <CharString name="bracketleft">
          -350 -161 95 706 95 hstem
          -14 372 vstem
          -14 -161 rmoveto
          215 hlineto
          16 95 rlineto
          -100 hlineto
          125 706 rlineto
          100 hlineto
          16 95 rlineto
          -216 hlineto
          endchar
        </CharString>
        <CharString name="bracketright">
          -350 -161 95 706 95 hstem
          -43 372 vstem
          -43 -161 rmoveto
          215 hlineto
          157 896 rlineto
          -216 hlineto
          -16 -95 rlineto
          100 hlineto
          -125 -706 rlineto
          -99 hlineto
          endchar
        </CharString>
        <CharString name="breve">
          -350 586 79 callsubr
          hstemhm
          15 92 -92 325 hintmask 01010000
          340 60 callsubr
          hintmask 10100000
          -40 callgsubr
          hintmask 01100000
          -97 callgsubr
          hintmask 01010000
          -52 callgsubr
          endchar
        </CharString>
        <CharString name="brokenbar">
          75 callgsubr
          357 rmoveto
          100 366 -100 hlineto
          -896 vmoveto
          100 366 -100 hlineto
          endchar
        </CharString>
        <CharString name="bullet">
          -333 208 271 hstem
          40 271 vstem
          311 343 rmoveto
          75 -61 61 -75 -75 -60 -61 -75 -75 60 -60 75 75 61 60 75 vhcurveto
          endchar
        </CharString>
        <CharString name="c">
          38 callsubr
          65 callsubr
          380 328 -92 callgsubr
        </CharString>
        <CharString name="cacute">
          38 callsubr
          53 132 hstem
          17 140 225 140 45 callgsubr
          100 -263 -92 callgsubr
        </CharString>
        <CharString name="cacute.loclPLK">
          38 callsubr
          53 132 65 callsubr
          271 591 -49 callgsubr
          60 -395 -92 callgsubr
        </CharString>
        <CharString name="caron">
          -350 588 135 hstem
          11 332 vstem
          93 588 -98 callsubr
          endchar
        </CharString>
        <CharString name="ccaron">
          38 callsubr
          50 135 65 callsubr
          274 588 -98 callsubr
          188 -395 -92 callgsubr
        </CharString>
        <CharString name="ccedilla">
          38 callgsubr
          48 -21 434 110 hstemhm
          17 140 81 108 36 140 hintmask 00000000
          hintmask 10111111
          259 -33 rmoveto
          6 21 126 4 82 68 22 138 rlinecurve
          -132 hlineto
          -64 -11 -38 -36 -63 hhcurveto
          -66 -28 35 64 17 2 20 7 37 hvcurveto
          101 19 41 56 77 hhcurveto
          51 28 -26 -48 -8 -1 -9 -1 -9 hvcurveto
          138 hlineto
          3 17 1 16 15 vvcurveto
          108 -88 54 -134 -203 -80 -173 -178 vhcurveto
          hintmask 10011111
          -114 55 -62 110 -17 vhcurveto
          hintmask 10111111
          -23 -71 1 callgsubr
        </CharString>
        <CharString name="ccircumflex">
          38 callsubr
          50 135 -66 66 hstemhm
          37 callsubr
          hintmask 11101100
          388 588 -103 callgsubr
          hintmask 11011100
          -13 callsubr
          37 -329 -92 callgsubr
        </CharString>
        <CharString name="cdotaccent">
          38 callsubr
          56 130 65 callsubr
          268 -12 callgsubr
          89 -396 -92 callgsubr
        </CharString>
        <CharString name="cedilla">
          -350 -182 57 -28 -21 97 88 hstemhm
          175 108 hintmask 10110000
          96 -77 rmoveto
          -23 callgsubr
          hintmask 01110000
          -9 -49 rlineto
          hintmask 10110000
          -14 callgsubr
          14 44 rlineto
          -85 hlineto
          endchar
        </CharString>
        <CharString name="cent">
          68 111 544 -20 hstem
          30 140 225 140 vstem
          190 -49 rmoveto
          51 hlineto
          21 117 rlineto
          4 hlineto
          133 87 68 142 22 hvcurveto
          -132 hlineto
          -10 -58 -32 -35 -53 -6 58 327 rcurveline
          36 -7 20 -25 -40 vvcurveto
          -8 -1 -9 -1 -9 vhcurveto
          138 hlineto
          3 17 1 16 15 vvcurveto
          95 -68 53 -108 11 vhcurveto
          19 108 rlineto
          -51 hlineto
          -19 -105 rlineto
          -199 -3 -79 -172 -176 vvcurveto
          -119 61 -63 120 -14 vhcurveto
          77 434 rmoveto
          -57 -324 rlineto
          -43 11 -18 33 52 vvcurveto
          17 2 20 7 37 vhcurveto
          16 88 34 54 59 12 rrcurveto
          endchar
        </CharString>
        <CharString name="circumflex">
          -350 588 135 -66 66 hstemhm
          -11 332 hintmask 10100000
          215 588 -103 callgsubr
          hintmask 01100000
          -13 callsubr
          endchar
        </CharString>
        <CharString name="colon">
          -350 0 137 252 137 hstem
          39 231 vstem
          108 389 -8 callgsubr
          -93 -526 -8 callgsubr
          endchar
        </CharString>
        <CharString name="comma">
          -405 0 137 hstem
          -13 190 vstem
          -13 -156 -57 callgsubr
          endchar
        </CharString>
        <CharString name="copyright">
          54 -12 62 81 66 289 66 84 62 hstem
          13 64 112 79 182 78 131 -30 callgsubr
          160 247 rmoveto
          -74 hlineto
          -65 -24 -35 -62 -71 -29 41 103 105 31 40 69 63 19 -31 -69 vhcurveto
          78 hlineto
          108 -47 58 -113 -122 -57 -66 -145 -144 56 -66 123 115 45 78 88 vhcurveto
          endchar
        </CharString>
        <CharString name="currency">
          102 79 338 79 hstem
          33 82 326 82 vstem
          427 157 rmoveto
          55 -58 45 45 -54 56 rlineto
          34 42 16 54 55 vvcurveto
          55 -16 56 -34 39 vhcurveto
          55 54 -48 48 -57 -56 rlineto
          33 -38 -54 18 -53 hhcurveto
          -53 -54 -18 -33 -38 hvcurveto
          -57 56 -48 -48 55 -54 rlineto
          -34 -39 -16 -56 -55 vvcurveto
          -55 16 -54 34 -42 vhcurveto
          -54 -56 45 -45 55 58 rlineto
          -37 40 55 -18 54 hhcurveto
          54 55 18 37 40 hvcurveto
          -149 24 rmoveto
          -91 -72 79 91 89 73 79 90 90 73 -79 -89 -91 -72 -79 -91 hvcurveto
          endchar
        </CharString>
        <CharString name="d">
          -72 -12 52 callgsubr
          185 -20 89 callgsubr
          hintmask 00000000
          hintmask 01111000
          12 callsubr
          hintmask 10111000
          2 callsubr
          endchar
        </CharString>
        <CharString name="dagger">
          -152 -21 859 -20 hstem
          54 505 vstem
          137 -173 rmoveto
          114 hlineto
          85 598 203 -18 20 113 -209 45 callsubr
          rlineto
          endchar
        </CharString>
        <CharString name="daggerdbl">
          -152 -21 190 -21 690 -20 hstemhm
          -19 575 -350 123.5 hintmask 11110000
          262 13 rmoveto
          202 -17 19 113 rlineto
          hintmask 11101000
          -208 -18 50 169 9 165 202 -18 20 113 -208 45 callsubr
          -49 -165 -10 -169 -202 18 -18 -113 207 17 -50 -186 rlineto
          108 hlineto
          endchar
        </CharString>
        <CharString name="dcaron">
          36 -12 52 callgsubr
          21 127 -127 164 89 callgsubr
          hintmask 00000000
          hintmask 01101100
          369 hmoveto
          114 hlineto
          -22 callgsubr
          hintmask 10100100
          -45 -258 -39 callsubr
          246 373 rmoveto
          72 hlineto
          89 129 rlineto
          hintmask 10110100
          11 callgsubr
          55 hlineto
          -441 -452 rmoveto
          -63 -27 34 63 hvcurveto
          hintmask 10100100
          75 22 144 125 59 32 -34 -67 vhcurveto
          hintmask 10110100
          -93 -35 -122 -113 vhcurveto
          endchar
        </CharString>
        <CharString name="dcroat">
          -72 -12 52 callgsubr
          49 71 -71 136 89 callgsubr
          hintmask 00000000
          hintmask 01101100
          369 hmoveto
          114 hlineto
          103 587 rlineto
          58 hlineto
          hintmask 10110100
          13 71 rlineto
          -59 hlineto
          hintmask 10101100
          12 65 -82 callsubr
          hintmask 10110100
          -11 -65 rlineto
          -154 hlineto
          hintmask 10101100
          -13 -71 rlineto
          154 hlineto
          -21 -122 -39 callsubr
          -119 38 0 callsubr
        </CharString>
        <CharString name="degree">
          -283 386 82 147 83 hstem
          44 82 147 83 vstem
          200 386 rmoveto
          87 69 69 87 87 -69 69 -87 -87 -69 -69 -87 -87 69 -69 87 hvcurveto
          82 vmoveto
          -41 -33 33 41 41 33 32 41 41 32 -32 -41 -41 -32 -33 -41 hvcurveto
          endchar
        </CharString>
        <CharString name="dieresis">
          -350 605 118 hstem
          -8 349 vstem
          -8 605 -101 callsubr
          endchar
        </CharString>
        <CharString name="divide">
          -134 1 110 92 105 94 110 hstem
          17 491 vstem
          227 402 87 callgsubr
          -230 -309 rmoveto
          472 hlineto
          19 105 rlineto
          -472 hlineto
          120 -307 87 callgsubr
          endchar
        </CharString>
        <CharString name="dollar">
          68 178 205 164 108 -20 hstemhm
          19 137 -87 141 150 142 -114 139 hintmask 11110100
          184 -49 rmoveto
          51 hlineto
          20 116 rlineto
          128 1 119 48 143 vvcurveto
          103 -103 23 -84 20 vhcurveto
          hintmask 11101010
          19 104 rlineto
          33 -5 21 -16 -27 vvcurveto
          -1 -10 rlineto
          133 hlineto
          0 7 21 23 vvcurveto
          68 -71 43 -103 9 vhcurveto
          19 108 rlineto
          -51 hlineto
          -19 -106 rlineto
          -130 -3 -103 -60 -118 vvcurveto
          -97 94 -25 82 -21 vhcurveto
          hintmask 11110100
          -21 -118 rlineto
          -37 5 -31 15 36 vvcurveto
          6 3 9 0 vhcurveto
          -133 hlineto
          0 -7 -16 -23 vvcurveto
          -77 66 -52 120 -10 vhcurveto
          hintmask 11101100
          78 442 rmoveto
          -16 -93 rlineto
          -34 10 -23 13 23 vvcurveto
          26 29 17 44 4 vhcurveto
          -9 -336 rmoveto
          19 106 rlineto
          39 -11 28 -15 -27 vvcurveto
          -37 -43 -13 -43 -3 vhcurveto
          endchar
        </CharString>
        <CharString name="dotaccent">
          -350 594 130 hstem
          88 158 vstem
          88 -12 callgsubr
          endchar
        </CharString>
        <CharString name="dotbelowcomb">
          -683 -26 callgsubr
          hstem
          -321 158 vstem
          -321 -173 -96 callsubr
          endchar
        </CharString>
        <CharString name="dotlessi">
          -12 callsubr
          hstem
          13 230 vstem
          13 hmoveto
          -63 callgsubr
          endchar
        </CharString>
        <CharString name="e">
          -42 callsubr
          hstem
          -36 callsubr
          vstem
          159 231 -106 callgsubr
          endchar
        </CharString>
        <CharString name="eacute">
          -42 callsubr
          53 132 hstem
          -36 callsubr
          45 callgsubr
          -121 -360 -106 callgsubr
          endchar
        </CharString>
        <CharString name="ebreve">
          -42 callsubr
          48 79 callsubr
          hstemhm
          17 138 29 92 106 137 hintmask 11101101
          509 60 callsubr
          hintmask 11110111
          -40 callgsubr
          hintmask 11101111
          -97 callgsubr
          hintmask 11101101
          -52 callgsubr
          -350 -492 -106 callgsubr
          endchar
        </CharString>
        <CharString name="ecaron">
          -42 callsubr
          50 135 hstem
          -36 callsubr
          vstem
          274 588 -98 callsubr
          -33 -492 -106 callgsubr
          endchar
        </CharString>
        <CharString name="ecircumflex">
          -42 callsubr
          50 135 -66 66 15 callsubr
          hintmask 11110110
          388 588 -103 callgsubr
          hintmask 11101110
          -13 callsubr
          -184 -426 -106 callgsubr
          endchar
        </CharString>
        <CharString name="edieresis">
          -42 callsubr
          67 118 hstem
          -36 callsubr
          vstem
          175 605 -101 callsubr
          -246 -492 -106 callgsubr
          endchar
        </CharString>
        <CharString name="edotaccent">
          -42 callsubr
          56 130 hstem
          -36 callsubr
          vstem
          268 -12 callgsubr
          -132 -493 -106 callgsubr
          endchar
        </CharString>
        <CharString name="egrave">
          -42 callsubr
          53 132 hstem
          -36 callsubr
          vstem
          285 591 -84 callsubr
          -41 -489 -106 callgsubr
          endchar
        </CharString>
        <CharString name="eight">
          -12 110 198 109 183 110 hstemhm
          2 144 -71 138 145 140 -102 141 hintmask 11101100
          414 352 rmoveto
          hintmask 11101010
          80 37 43 68 76 vvcurveto
          94 -68 71 -144 -155 -95 -105 -119 -51 22 -44 46 -27 vhcurveto
          hintmask 11110100
          -93 -36 -48 -76 -91 vvcurveto
          -92 66 -69 167 177 86 107 121 vhcurveto
          hintmask 11101100
          60 -25 48 -59 28 vhcurveto
          hintmask 11101010
          -126 53 rmoveto
          -50 -25 23 44 74 45 42 63 48 27 -24 -44 -74 -46 -41 -62 hvcurveto
          hintmask 11110100
          70 -185 rmoveto
          -74 -55 -48 -69 -58 -30 27 48 77 50 46 73 58 31 -27 -49 vhcurveto
          endchar
        </CharString>
        <CharString name="ellipsis">
          317 0 137 hstem
          38 829 vstem
          38 hmoveto
          -14 callsubr
          308 -137 rmoveto
          -14 callsubr
          308 -137 rmoveto
          -14 callsubr
          endchar
        </CharString>
        <CharString name="emacron">
          -42 callsubr
          73 88 hstem
          -36 callsubr
          vstem
          188 611 -65 callgsubr
          -44 -468 -106 callgsubr
          endchar
        </CharString>
        <CharString name="emdash">
          31 callsubr
        </CharString>
        <CharString name="endash">
          221 98 hstem
          -15 572 vstem
          -15 221 82 callgsubr
        </CharString>
        <CharString name="eng">
          59 callsubr
          91 41 callsubr
          hintmask 11011000
          245 55 callgsubr
          63 354 -11 callgsubr
          -59 -331 rlineto
          -28 -5 -17 -15 -28 hhcurveto
          endchar
        </CharString>
        <CharString name="eogonek">
          -182 69 -48 -21 170 -46 callsubr
          hstemhm
          17 138 113 112 2 137 hintmask 00000000
          hintmask 10111110
          434 -168 rmoveto
          10 55 rlineto
          -16 hlineto
          -27 -21 21 25 24 3 42 55 58 hvcurveto
          32 34 18 40 9 55 rrcurveto
          9 callsubr
          hintmask 01111101
          -41 callsubr
          5 28 3 26 24 vvcurveto
          135 -72 62 -146 -209 -75 -178 -173 -136 79 -63 158 vhcurveto
          hintmask 01111110
          21 19 1 4 21 hvcurveto
          -26 -26 -21 -33 -38 vvcurveto
          -59 44 -19 48 24 23 5 9 27 vhcurveto
          hintmask 01111101
          -55 490 rmoveto
          -202 hlineto
          72 21 39 37 70 hhcurveto
          46 29 -22 -53 -10 -1 -12 -2 -12 hvcurveto
          endchar
        </CharString>
        <CharString name="equal">
          -99 96 103 109 104 hstem
          21 527 vstem
          58 308 rmoveto
          472 hlineto
          18 104 rlineto
          -472 hlineto
          -55 -316 rmoveto
          472 hlineto
          18 103 rlineto
          -472 hlineto
          endchar
        </CharString>
        <CharString name="equivalence">
          -100 17 103 109 104 109 104 hstem
          5 566 vstem
          80 442 rmoveto
          473 hlineto
          18 104 rlineto
          -473 hlineto
          -56 -317 rmoveto
          473 hlineto
          19 104 rlineto
          -473 hlineto
          -56 -316 rmoveto
          473 hlineto
          18 103 rlineto
          -473 hlineto
          endchar
        </CharString>
        <CharString name="estimated">
          -83 -12 42 218 42 206 42 hstem
          45 108 298 108 vstem
          526 118 rmoveto
          -34 21 rlineto
          -67 -34 -68 -42 -88 hhcurveto
          -62 -50 19 34 -37 hvcurveto
          165 406 5 vlineto
          165 -98 120 -159 -160 -97 -116 -159 -159 97 -116 160 104 78 50 80 42 vhcurveto
          -75 323 rmoveto
          -151 -298 152 vlineto
          34 37 50 20 62 hhcurveto
          61 50 -20 -35 38 hvcurveto
          endchar
        </CharString>
        <CharString name="eth">
          -72 -12 112 316 112 61 70.5 -70.5 134 -113.5 76.5 -23 60 89 callgsubr
          266 144 hintmask 00000000
          hintmask 11001011
          491 606 rmoveto
          103 7 13 73 -171 -12 rlineto
          hintmask 11010011
          -13 17 -17 16 -17 16 rrcurveto
          -156 hlineto
          -5 -5 rlineto
          hintmask 11000111
          19 -18 19 -18 17 -19 rrcurveto
          hintmask 11100011
          -103 -7 rlineto
          hintmask 11010011
          -12 -73 168 12 20 -28 15 -27 11 -27 rlinecurve
          -5 -4 rlineto
          12 -31 -37 7 -39 hhcurveto
          -60 -57 -22 -42 -42 hvcurveto
          -59 -59 -34 -96 -117 vvcurveto
          -140 81 -64 166 228 77 157 203 vhcurveto
          hintmask 11001011
          96 -30 88 -49 74 vhcurveto
          -73 -355 rmoveto
          hintmask 11010011
          -98 -18 -43 -53 -93 hhcurveto
          -74 -30 34 65 16 2 17 6 35 hvcurveto
          97 17 43 52 92 hhcurveto
          75 31 -34 -65 hvcurveto
          hintmask 11001011
          -15 -2 -17 -6 -34 vhcurveto
          endchar
        </CharString>
        <CharString name="exclam">
          -350 84 callsubr
          99 197 rmoveto
          82 hlineto
          124 489 rlineto
          -153 hlineto
          -113 -686 -8 callgsubr
          endchar
        </CharString>
        <CharString name="exclamdbl">
          -79 84 callsubr
          305 686 rmoveto
          -153 hlineto
          -53 -489 rlineto
          82 hlineto
          -142 -197 -8 callgsubr
          endchar
        </CharString>
        <CharString name="exclamdown">
          -350 389 137 hstem
          11 266 vstem
          115 389 -8 callgsubr
          -128 -686 rmoveto
          153 hlineto
          53 489 rlineto
          -82 hlineto
          endchar
        </CharString>
        <CharString name="f">
          -350 -6 callgsubr
          484 112 93 112 hstem
          -98 478 vstem
          -15 callgsubr
          9 50 -75 callsubr
          endchar
        </CharString>
        <CharString name="f_f">
          -17 56 callsubr
          93 112 hstem
          -98 811 vstem
          646 619 rmoveto
          50 hlineto
          17 96 rlineto
          8 -21 -42 8 -32 hhcurveto
          -103 -43 -73 -72 -12 hvcurveto
          -10 -60 rlineto
          -196 hlineto
          9 50 -75 callsubr
          -50 hlineto
          -17 -96 rlineto
          -8 21 42 -8 32 hhcurveto
          103 43 73 72 12 hvcurveto
          79 451 rlineto
          196 hlineto
          -73 -414 rlineto
          -24 callgsubr
          73 414 rlineto
          93 12 callgsubr
          -93 hlineto
          9 50 rlineto
          28 5 17 15 28 hhcurveto
          endchar
        </CharString>
        <CharString name="fi">
          -72 56 callsubr
          73 124 -104 112 hstemhm
          -98 708 hintmask 11110100
          -15 callgsubr
          hintmask 11101100
          9 50 -75 callsubr
          hintmask 11110100
          482 669 -42 callgsubr
          -127 -6 callsubr
        </CharString>
        <CharString name="five">
          -12 112 238 108 118 122 hstem
          10 142 207 143 vstem
          247 564 rmoveto
          276 hlineto
          21 122 rlineto
          -397 hlineto
          -94 -380 127 -16 rlineto
          25 24 30 23 44 hhcurveto
          48 33 -27 -57 -103 -63 -51 -61 -53 -30 31 52 9 1 10 2 11 hvcurveto
          -141 hlineto
          -3 -17 -1 -15 -15 vvcurveto
          -113 87 -65 142 146 117 105 177 120 -73 56 -102 -55 -37 -20 -14 -24 vhcurveto
          endchar
        </CharString>
        <CharString name="fiveeighths">
          52 callsubr
          -43 68 110 67 48 74 12 -20 hstemhm
          57 84 94 85 166 68 callgsubr
          hintmask 1110110111010000
          40 -12 rmoveto
          96 hlineto
          hintmask 1110101111010000
          671 710 rlineto
          -96 hlineto
          hintmask 1101110111010000
          -525 -86 rmoveto
          143 hlineto
          13 74 rlineto
          -214 hlineto
          -50 -204 74 -10 rlineto
          14 13 14 11 20 hhcurveto
          21 15 -11 -25 -48 -28 -26 -28 -24 -14 13 21 5 1 4 1 5 hvcurveto
          -84 hlineto
          -2 -9 0 -8 -8 vvcurveto
          -58 45 -33 75 80 63 54 95 65 -38 31 -52 -25 -21 -7 -7 -13 vhcurveto
          539 -369 rmoveto
          hintmask 1110110110101000
          -10 callsubr
          hintmask 1110110111010000
          8 callgsubr
          vhcurveto
          hintmask 1101110111010000
          31 -12 26 -29 16 vhcurveto
          hintmask 1110110110101000
          -10 callgsubr
          hintmask 1110110111010000
          -16 callgsubr
        </CharString>
        <CharString name="fl">
          -72 56 callsubr
          93 112 -8 -20 hstemhm
          -98 708 hintmask 11101100
          -15 callgsubr
          hintmask 11110100
          9 50 -75 callsubr
          377 70 39 callsubr
          hintmask 11101100
          95 callsubr
        </CharString>
        <CharString name="florin">
          -183 112 449 112 129 112 hstem
          -39 585 vstem
          -12 -71 rmoveto
          -27 -96 rlineto
          -8 17 36 -8 29 hhcurveto
          109 49 58 87 26 hvcurveto
          126 416 rlineto
          93 hlineto
          32 112 rlineto
          -93 hlineto
          27 86 rlineto
          28 8 20 15 28 hhcurveto
          50 hlineto
          28 96 rlineto
          8 -18 -36 8 -29 hhcurveto
          -110 -47 -57 -88 -28 hvcurveto
          -30 -96 rlineto
          -75 hlineto
          -32 -112 rlineto
          75 hlineto
          -123 -406 rlineto
          -28 -8 -19 -15 -28 hhcurveto
          endchar
        </CharString>
        <CharString name="four">
          21 -21 146 112 440 -20 hstem
          -15 531 vstem
          252 hmoveto
          -24 callgsubr
          26 146 rlineto
          82 hlineto
          19 112 rlineto
          -82 hlineto
          60 338 rlineto
          -63 hlineto
          -24 -54 -47 -89 -38 -53 -25 -142 rcurveline
          -168 hlineto
          52 54 152 210 73 176 rrcurveto
          -152 hlineto
          -73 -171 -78 -144 -100 -125 -18 -112 rcurveline
          293 hlineto
          endchar
        </CharString>
        <CharString name="fraction">
          23 callgsubr
        </CharString>
        <CharString name="franc">
          21 -21 256 123 -40 125 99 123 hstemhm
          0 575 hintmask 10111000
          231 hmoveto
          -24 callgsubr
          34 192 rlineto
          96 17 33 51 63 hhcurveto
          38 hlineto
          22 128 rlineto
          0 -14 9 -24 -47 -33 -44 -53 -24 vhcurveto
          -7 85 -113 hlineto
          hintmask 11011000
          -15 -85 rlineto
          -87 hlineto
          32 184 rlineto
          212 -76 callsubr
          -357 hlineto
          -120 -19 callsubr
          144 hlineto
          45 256 rlineto
          87 hlineto
          endchar
        </CharString>
        <CharString name="g">
          -38 callgsubr
          96 callgsubr
          hintmask 11101000
          362 91 -83 callsubr
          hintmask 11011000
          19 callsubr
          hintmask 11101000
          -93 callsubr
        </CharString>
        <CharString name="g_tilde.loclGUA">
          -38 callgsubr
          95 85 -48 85 96 callgsubr
          hintmask 11100110
          554 49 callsubr
          hintmask 11101010
          -41 callgsubr
          -47 -34 37 -51 hhcurveto
          -67 -35 -57 -65 -11 hvcurveto
          69 hlineto
          hintmask 11100110
          6 callgsubr
          hintmask 11101010
          47 34 -37 50 hhcurveto
          hintmask 11100110
          68 36 57 65 11 hvcurveto
          -192 7 callgsubr
          hintmask 11010110
          19 callsubr
          hintmask 11100110
          -93 callsubr
        </CharString>
        <CharString name="gbreve">
          -38 callgsubr
          80 89 -89 137 96 callgsubr
          48 92 hintmask 11100111
          537 60 callsubr
          hintmask 11101011
          -40 callgsubr
          hintmask 11100111
          -97 callgsubr
          -52 callgsubr
          -175 7 callgsubr
          hintmask 11010111
          19 callsubr
          hintmask 11100111
          -93 callsubr
        </CharString>
        <CharString name="gcaron">
          -38 callgsubr
          82 135 96 callgsubr
          hintmask 11101100
          302 588 -98 callsubr
          142 7 callgsubr
          hintmask 11011100
          19 callsubr
          hintmask 11101100
          -93 callsubr
        </CharString>
        <CharString name="gcircumflex">
          -38 callgsubr
          82 135 -66 66 96 callgsubr
          hintmask 11101010
          416 588 -103 callgsubr
          hintmask 11010110
          -13 callsubr
          -9 -566 -83 callsubr
          19 callsubr
          hintmask 11101010
          -93 callsubr
        </CharString>
        <CharString name="gcommaaccent">
          -38 callgsubr
          79 98 96 callgsubr
          hintmask 11101100
          262 585 rmoveto
          138 hlineto
          18 98 rlineto
          -53 hlineto
          70 97 rlineto
          -72 hlineto
          -86 -109 rlineto
          85 -580 -83 callsubr
          hintmask 11011100
          19 callsubr
          hintmask 11101100
          -93 callsubr
        </CharString>
        <CharString name="gdotaccent">
          -38 callgsubr
          88 130 96 callgsubr
          hintmask 11101100
          296 -12 callgsubr
          43 -633 -83 callsubr
          hintmask 11011100
          19 callsubr
          hintmask 11101100
          -93 callsubr
        </CharString>
        <CharString name="germandbls">
          -72 0 111 210 121 183 110 hstemhm
          417 138 -108 143 hintmask 11110000
          205 hmoveto
          72 hlineto
          181 97 92 136 86 -33 51 -73 27 hvcurveto
          4 vlineto
          hintmask 11101000
          86 26 55 60 86 vvcurveto
          105 -80 62 -151 -64 -61 -15 -37 -46 vhcurveto
          -44 -36 -31 -57 -14 -79 -90 -511 rcurveline
          -24 callgsubr
          91 519 rlineto
          68 12 48 38 62 hhcurveto
          62 26 -33 -47 -63 -43 -40 -61 hvcurveto
          -61 hlineto
          -21 -121 rlineto
          hintmask 11110000
          64 hlineto
          57 35 -38 -53 -60 -42 -59 -92 hvcurveto
          -59 hlineto
          endchar
        </CharString>
        <CharString name="grave">
          68 callsubr
          86 185 vstem
          171 591 -84 callsubr
          endchar
        </CharString>
        <CharString name="greater">
          -99 2 520 hstem
          6 531 vstem
          6 2 34 callgsubr
          endchar
        </CharString>
        <CharString name="greaterequal">
          -134 0 104 426 -20 hstem
          -18 552 vstem
          3 124 34 callgsubr
          -41 -246 rmoveto
          472 hlineto
          18 104 rlineto
          -472 hlineto
          endchar
        </CharString>
        <CharString name="guillemotleft">
          526 -20 hstem
          59 270 vstem
          329 526 rmoveto
          -109 hlineto
          -161 -200 100 -200 rlineto
          99 hlineto
          -72 200 rlineto
          endchar
        </CharString>
        <CharString name="guillemotright">
          526 -20 hstem
          3 271 vstem
          173 526 rmoveto
          -99 hlineto
          73 -200 -144 -200 rlineto
          109 hlineto
          162 200 rlineto
          endchar
        </CharString>
        <CharString name="guilsinglleft">
          -350 526 -20 hstem
          59 270 vstem
          159 126 rmoveto
          99 hlineto
          -72 200 143 200 rlineto
          -109 hlineto
          -161 -200 rlineto
          endchar
        </CharString>
        <CharString name="guilsinglright">
          -350 526 -20 hstem
          3 271 vstem
          3 126 rmoveto
          109 hlineto
          162 200 -101 200 rlineto
          -99 hlineto
          73 -200 rlineto
          endchar
        </CharString>
        <CharString name="h">
          -72 21 -32 callgsubr
          endchar
        </CharString>
        <CharString name="hbar">
          -72 21 -21 417 121 49 71 -71 136 33 callgsubr
          hintmask 11011000
          352 hmoveto
          -4 callsubr
          21 122 rlineto
          154 hlineto
          hintmask 11101000
          13 71 rlineto
          -154 hlineto
          hintmask 11011000
          11 65 -82 callsubr
          hintmask 11101000
          -12 -65 rlineto
          -57 hlineto
          hintmask 11011000
          -13 -71 rlineto
          58 hlineto
          -103 -587 rlineto
          -24 callgsubr
          64 callgsubr
          -44 callgsubr
        </CharString>
        <CharString name="hcircumflex">
          -72 21 -21 417 121 185 -20 45 135 33 callgsubr
          hintmask 00000000
          hintmask 11111000
          270 748 -99 callgsubr
          127 -817 rmoveto
          -4 callsubr
          hintmask 11101000
          45 258 77 callsubr
          rlineto
          -24 callgsubr
          64 callgsubr
          -44 callgsubr
        </CharString>
        <CharString name="hookabovecomb">
          -683 591 54 callgsubr
          -103 78 callsubr
          hintmask 11100000
          -193 683 -101 callgsubr
          endchar
        </CharString>
        <CharString name="house">
          -79 0 70 hstem
          77 69 312 69 vstem
          77 hmoveto
          450 310 hlineto
          -225 253 -225 -253 rlineto
          381 -27 rmoveto
          -213 -312 213 vlineto
          156 178 rlineto
          endchar
        </CharString>
        <CharString name="hungarumlaut">
          68 callsubr
          -8 418 vstem
          100 -21 callsubr
          endchar
        </CharString>
        <CharString name="hyphen">
          24 callgsubr
        </CharString>
        <CharString name="i">
          -12 callsubr
          93 124 hstem
          13 264 18 callgsubr
          endchar
        </CharString>
        <CharString name="i.loclTRK">
          -12 callsubr
          88 130 hstem
          13 264 vstem
          119 -12 callgsubr
          -129 -724 -59 callgsubr
        </CharString>
        <CharString name="iacute">
          -405 21 69 callgsubr
          hstem
          13 341 vstem
          223 591 -102 callsubr
          -100 -591 -59 callgsubr
        </CharString>
        <CharString name="iacute_j.loclNLD">
          42 callsubr
          85 132 hstem
          13 637 vstem
          241 591 -102 callsubr
          388 hmoveto
          131 129 57 callsubr
          -396 -591 -68 callsubr
          78 -596 -82 callgsubr
        </CharString>
        <CharString name="ibreve">
          -12 callsubr
          80 89 -89 137 hstemhm
          13 342 -325 92 hintmask 11011000
          355 60 callsubr
          hintmask 11100100
          -40 callgsubr
          hintmask 11010100
          -97 callgsubr
          hintmask 11011000
          -52 callgsubr
          -342 -6 callsubr
        </CharString>
        <CharString name="icircumflex">
          -12 callsubr
          82 135 -66 66 hstemhm
          10 332 hintmask 11101000
          236 30 callgsubr
          -178 -657 -59 callgsubr
        </CharString>
        <CharString name="idieresis">
          -12 callsubr
          99 118 hstem
          13 356 vstem
          20 605 -101 callsubr
          -237 -6 callsubr
        </CharString>
        <CharString name="igrave">
          -405 21 69 callgsubr
          hstem
          13 235 vstem
          148 591 -84 callsubr
          -50 -720 -59 callgsubr
        </CharString>
        <CharString name="ij">
          42 callsubr
          93 124 hstem
          13 542 vstem
          118 599 -42 callgsubr
          256 -124 -42 callgsubr
          -405 -723 -68 callsubr
          78 -596 -82 callgsubr
        </CharString>
        <CharString name="imacron">
          -12 callsubr
          133 88 hstem
          13 338 vstem
          31 639 -65 callgsubr
          -33 -727 -59 callgsubr
        </CharString>
        <CharString name="infinity">
          30 138 83 154 82 hstem
          43 96 432 96 vstem
          342 232 rmoveto
          -83 46 61 -11 44 hhcurveto
          90 84 70 118 83 -59 48 -78 -73 -50 -58 -32 -33 hvcurveto
          59 -35 -45 31 -72 hhcurveto
          -101 -78 -77 -108 -84 59 -50 75 64 49 38 56 52 hvcurveto
          -36 66 rmoveto
          2 -5 rlineto
          -35 -30 -41 -37 -42 hhcurveto
          -34 -22 29 36 58 45 31 35 48 17 -32 -45 22 hvcurveto
          97 hmoveto
          3 4 rlineto
          38 37 33 35 40 hhcurveto
          35 20 -27 -37 -30 -22 -60 -55 -33 -23 12 65 -35 hvcurveto
          endchar
        </CharString>
        <CharString name="integral">
          -409 -141 70 79 -21 803 69 hstem
          -65 412 vstem
          -52 -71 rmoveto
          -13 -70 rlineto
          128 61 17 95 17 hvcurveto
          26 149 80 613 0 vvcurveto
          43 8 36 14 43 hhcurveto
          13 69 rlineto
          -128 -64 -18 -94 -16 hvcurveto
          -27 -150 -80 -610 0 vvcurveto
          -44 -8 -33 -14 -43 hhcurveto
          endchar
        </CharString>
        <CharString name="integralbt">
          -79 -250 69 hstem
          79 369 vstem
          91 -181 rmoveto
          -12 -69 rlineto
          128 62 18 94 17 hvcurveto
          14 80 78 477 70 440 rrcurveto
          -114 hlineto
          -156 -983 rlineto
          -43 -8 -36 -14 -43 hhcurveto
          endchar
        </CharString>
        <CharString name="integraltp">
          -79 790 69 hstem
          155 369 vstem
          155 -250 rmoveto
          114 hlineto
          156 983 rlineto
          43 8 36 14 43 hhcurveto
          12 69 rlineto
          -128 -62 -18 -94 -17 hvcurveto
          -14 -80 -79 -477 -69 -440 rrcurveto
          endchar
        </CharString>
        <CharString name="intersection">
          39 21 -21 589 87 hstem
          552 93 vstem
          477 hmoveto
          92 hlineto
          72 410 rlineto
          3 17 1 16 16 vvcurveto
          127 -100 90 -143 -137 -127 -101 -165 -29 vhcurveto
          -72 -410 rlineto
          92 hlineto
          72 410 rlineto
          105 18 81 74 108 hhcurveto
          91 53 -58 -85 -12 -1 -12 -2 -12 hvcurveto
          endchar
        </CharString>
        <CharString name="iogonek">
          -405 -182 69 134 41 callgsubr
          93 124 hstem
          -20 112 vstem
          118 599 -42 callgsubr
          6 -891 rmoveto
          66 callsubr
          29 18 28 18 18 hvcurveto
          22 -76 callgsubr
          -93 -526 rlineto
          24 hlineto
          -29 -25 -28 -33 -47 -9 callsubr
          endchar
        </CharString>
        <CharString name="itilde">
          -12 callsubr
          95 83 callsubr
          -2 356 hintmask 11011000
          354 -4 callgsubr
          -341 -6 callsubr
        </CharString>
        <CharString name="j">
          -405 -6 callgsubr
          596 -20 93 124 hstem
          -110 387 vstem
          118 599 -42 callgsubr
          -234 -793 -82 callgsubr
        </CharString>
        <CharString name="jcircumflex">
          -405 -6 callgsubr
          596 -20 82 135 -66 66 hstemhm
          -110 446 hintmask 11101000
          230 30 callgsubr
          -279 -727 -82 callgsubr
        </CharString>
        <CharString name="k">
          21 -8 callsubr
          endchar
        </CharString>
        <CharString name="kcommaaccent">
          -138 98 61 -8 callsubr
          -128 -452 rmoveto
          73 hlineto
          -70 callgsubr
        </CharString>
        <CharString name="kgreenlandic">
          21 41 callgsubr
          hstem
          13 562 vstem
          345 hmoveto
          147 hlineto
          -126 319 209 207 rlineto
          -158 hlineto
          -212 -211 37 211 -82 callsubr
          -92 -526 rlineto
          -24 callgsubr
          27 152 91 70 rlineto
          endchar
        </CharString>
        <CharString name="l">
          29 callsubr
          723 -20 hstem
          13 264 vstem
          13 hmoveto
          -24 callgsubr
          95 callsubr
        </CharString>
        <CharString name="lacute">
          29 callsubr
          723 -20 48 132 hstemhm
          13 393 hintmask 00000000
          hintmask 11110000
          275 751 -102 callsubr
          -152 -751 39 callsubr
          hintmask 11010000
          95 callsubr
        </CharString>
        <CharString name="lcaron">
          -298 21 -21 559 127 -127 164 hstemhm
          13 452 hintmask 11010000
          13 hmoveto
          -24 callgsubr
          hintmask 10110000
          -22 callgsubr
          144 -281 rmoveto
          72 hlineto
          89 129 rlineto
          hintmask 11010000
          11 callgsubr
          53 hlineto
          endchar
        </CharString>
        <CharString name="lcommaaccent">
          -405 -138 98 61 -21 723 -20 hstem
          -26 303 vstem
          13 hmoveto
          -24 callgsubr
          -22 callgsubr
          -166 -953 rmoveto
          73 hlineto
          -70 callgsubr
        </CharString>
        <CharString name="ldot">
          -315 21 -21 289 137 297 -20 hstem
          13 399 vstem
          13 hmoveto
          -24 callgsubr
          -22 callgsubr
          109 -434 rmoveto
          -14 callsubr
          endchar
        </CharString>
        <CharString name="less">
          -99 2 520 hstem
          36 531 vstem
          36 198 33 callsubr
          endchar
        </CharString>
        <CharString name="lessequal">
          -134 0 104 hstem
          -17 584 vstem
          36 319 33 callsubr
          -76 -446 rmoveto
          472 hlineto
          18 104 rlineto
          -473 hlineto
          endchar
        </CharString>
        <CharString name="lira">
          0 112 82 92 53 92 155 44 callsubr
          26 82 rlineto
          158 hlineto
          16 92 rlineto
          -158 hlineto
          10 53 rlineto
          158 hlineto
          16 92 rlineto
          -156 hlineto
          14 81 rlineto
          44 8 36 30 50 hhcurveto
          45 26 -23 -39 -5 0 -5 -4 -23 hvcurveto
          136 hlineto
          5 25 1 10 22 vvcurveto
          100 -80 50 -129 -128 -83 -66 -133 -23 vhcurveto
          -12 -68 rlineto
          -75 hlineto
          -16 -92 rlineto
          75 hlineto
          -10 -53 rlineto
          -74 hlineto
          -16 -92 rlineto
          74 hlineto
          -14 -82 rlineto
          -61 hlineto
          endchar
        </CharString>
        <CharString name="logicalnot">
          -99 357 98 hstem
          47 518 vstem
          420 193 rmoveto
          98 hlineto
          47 262 rlineto
          -500 hlineto
          -18 -98 rlineto
          402 hlineto
          endchar
        </CharString>
        <CharString name="longs">
          -405 -6 callgsubr
          484 112 93 112 hstem
          -98 478 vstem
          -81 -70 rmoveto
          -17 -96 rlineto
          -8 21 42 -8 32 hhcurveto
          103 42 73 72 13 hvcurveto
          108 613 -75 callsubr
          endchar
        </CharString>
        <CharString name="lozenge">
          -83 597 131 0 -20 hstemhm
          42 484 hintmask 01100000
          424 728 rmoveto
          -127 hlineto
          -255 -430 103 -431 rlineto
          127 hlineto
          254 431 rlineto
          -299 -300 rmoveto
          -61 289 rlineto
          hintmask 10100000
          175 310 61 -288 rlineto
          endchar
        </CharString>
        <CharString name="lslash">
          29 callsubr
          723 -20 hstem
          -22 329 vstem
          13 hmoveto
          -24 callgsubr
          60 344 79 48 18 102 -79 -48 49 277 -82 callsubr
          -65 -371 -79 -48 -18 -102 79 48 rlineto
          endchar
        </CharString>
        <CharString name="m">
          206 21 -21 417 109 -109 121 hstemhm
          690 144 hintmask 10110000
          630 hmoveto
          -24 callgsubr
          57 313 rlineto
          6 32 4 27 25 vvcurveto
          102 -59 39 -82 -72 -55 -40 -43 -38 vhcurveto
          -8 hlineto
          58 -18 -48 25 -63 hhcurveto
          -69 -53 -40 -43 -37 hvcurveto
          -7 hlineto
          hintmask 11010000
          71 -115 vlineto
          -93 -526 rlineto
          -24 callgsubr
          51 284 rlineto
          hintmask 10110000
          75 13 46 75 callsubr
          -54 -304 rlineto
          -24 callgsubr
          51 284 rlineto
          75 13 45 75 callsubr
          endchar
        </CharString>
        <CharString name="macron">
          -350 611 88 hstem
          2 320 vstem
          2 611 -65 callgsubr
          endchar
        </CharString>
        <CharString name="minus">
          -99 204 104 hstem
          37 491 vstem
          37 204 rmoveto
          472 hlineto
          19 104 rlineto
          -472 hlineto
          endchar
        </CharString>
        <CharString name="minute">
          -443 506 180 hstem
          74 197 vstem
          74 506 35 callgsubr
          endchar
        </CharString>
        <CharString name="mu">
          -45 callgsubr
        </CharString>
        <CharString name="multiply">
          -99 35 440 hstem
          47 490 vstem
          400 39 rmoveto
          81 71 -117 141 173 146 -64 78 -173 -146 -117 142 -80 -71 117 -142 -173 -145 64 -78 173 146 rlineto
          endchar
        </CharString>
        <CharString name="n">
          -72 21 41 callsubr
          hintmask 10110000
          63 callgsubr
          hintmask 11010000
          -43 callsubr
          hintmask 10110000
          -55 callgsubr
          hintmask 11010000
          -44 callgsubr
        </CharString>
        <CharString name="nacute">
          -72 21 5 callsubr
          85 132 33 callgsubr
          hintmask 10111000
          418 591 -102 callsubr
          44 -591 -79 callgsubr
        </CharString>
        <CharString name="nacute.loclPLK">
          -72 21 5 callsubr
          85 132 33 callgsubr
          hintmask 10111000
          299 591 -49 callgsubr
          4 -723 -79 callgsubr
        </CharString>
        <CharString name="napostrophe">
          25 21 -21 417 121 -96 84 0 -20 53 127 hstemhm
          509 143 hintmask 00000000
          hintmask 10101100
          22 442 rmoveto
          71 hlineto
          89 129 20 115 -45 callsubr
          -21 -127 rlineto
          52 hlineto
          354 -559 rmoveto
          -67 callgsubr
          hintmask 11001100
          -43 callsubr
          hintmask 10011100
          -55 callgsubr
          hintmask 11001100
          -44 callgsubr
        </CharString>
        <CharString name="ncaron">
          -72 21 5 callsubr
          82 135 33 callgsubr
          hintmask 10111000
          302 588 -98 callsubr
          132 -723 -79 callgsubr
        </CharString>
        <CharString name="ncommaaccent">
          -72 -138 98 61 41 callsubr
          hintmask 11011000
          352 hmoveto
          137 hlineto
          56 313 -11 callgsubr
          -254 -534 rmoveto
          73 hlineto
          -70 callgsubr
        </CharString>
        <CharString name="nine">
          -12 111 -111 215 44 109 230 112 hstemhm
          22 138 -114 144 200 138 hintmask 00000000
          hintmask 01111010
          164 203 rmoveto
          -60 callgsubr
          -3 -18 -2 -18 -17 vvcurveto
          hintmask 10111010
          -95 60 -67 142 145 101 88 283 46 vhcurveto
          8 47 4 41 35 vvcurveto
          161 -84 55 -141 vhcurveto
          hintmask 10110110
          -141 -116 -109 -167 -107 55 -68 125 79 47 45 9 13 hvcurveto
          hintmask 10111010
          -124 -24 -24 -78 -89 hhcurveto
          -47 -21 24 43 hvcurveto
          hintmask 01111010
          11 2 12 2 14 vhcurveto
          hintmask 10110110
          105 153 rmoveto
          -55 -24 32 50 81 44 67 75 55 26 -34 -49 -87 -49 -60 -72 hvcurveto
          endchar
        </CharString>
        <CharString name="notequal">
          -134 96 103 109 104 hstem
          10 527 vstem
          209 96 rmoveto
          273 hlineto
          18 103 rlineto
          -218 hlineto
          77 109 rlineto
          160 hlineto
          18 104 rlineto
          -105 hlineto
          52 72 rlineto
          -94 hlineto
          -52 -72 rlineto
          -273 hlineto
          -18 -104 rlineto
          218 hlineto
          -77 -109 rlineto
          -160 hlineto
          -18 -103 rlineto
          105 hlineto
          -51 -71 rlineto
          94 hlineto
          endchar
        </CharString>
        <CharString name="ntilde">
          -72 21 5 callsubr
          95 85 -48 85 33 callgsubr
          hintmask 10101100
          554 49 callsubr
          hintmask 10110100
          -41 callgsubr
          -47 -34 37 -51 hhcurveto
          -67 -35 -57 -65 -11 hvcurveto
          69 hlineto
          hintmask 10101100
          6 callgsubr
          hintmask 10110100
          47 34 -37 50 hhcurveto
          hintmask 10101100
          68 36 57 65 11 hvcurveto
          -202 -723 rmoveto
          -67 callgsubr
          hintmask 11001100
          -43 callsubr
          hintmask 10101100
          -55 callgsubr
          hintmask 11001100
          -44 callgsubr
        </CharString>
        <CharString name="numbersign">
          9 -21 175 108 123 108 196 -20 hstem
          9 535 vstem
          261 -12 rmoveto
          104 hlineto
          35 175 rlineto
          98 108 -76 hlineto
          25 123 rlineto
          97 108 -75 86 callgsubr
          -120 86 callgsubr
          -86 -108 64 hlineto
          -25 -123 rlineto
          -85 -108 63 hlineto
          -35 -175 rlineto
          104 hlineto
          35 175 rlineto
          120 hlineto
          47 231 rmoveto
          -25 -123 rlineto
          -120 hlineto
          25 123 rlineto
          endchar
        </CharString>
        <CharString name="o">
          -66 callsubr
          hstem
          -53 callsubr
          vstem
          265 -12 -107 callgsubr
          endchar
        </CharString>
        <CharString name="oacute">
          -30 callsubr
          386 591 -102 callsubr
          -11 -603 -107 callgsubr
          endchar
        </CharString>
        <CharString name="oacute.loclPLK">
          -30 callsubr
          267 591 -49 callgsubr
          -51 -735 -107 callgsubr
          endchar
        </CharString>
        <CharString name="obreve">
          -66 callsubr
          48 79 callsubr
          hstemhm
          24 133 23 92 158 133 hintmask 11011010
          505 60 callsubr
          hintmask 11101110
          -40 callgsubr
          hintmask 11011110
          -97 callgsubr
          hintmask 11011010
          -52 callgsubr
          -240 -735 -107 callgsubr
          endchar
        </CharString>
        <CharString name="ocircumflex">
          -66 callsubr
          50 135 -66 66 hstemhm
          -53 callsubr
          hintmask 11101100
          384 588 -103 callgsubr
          hintmask 11011100
          -13 callsubr
          -74 -669 -107 callgsubr
          endchar
        </CharString>
        <CharString name="odieresis">
          -66 callsubr
          67 118 hstem
          -53 callsubr
          vstem
          171 605 -101 callsubr
          -136 -735 -107 callgsubr
          endchar
        </CharString>
        <CharString name="oe">
          261 -12 106 -106 112 131 91 104 112 -107 107 89 callgsubr
          256 128 227 137 hintmask 01110111
          548 231 rmoveto
          -41 callsubr
          6 28 2 26 24 vvcurveto
          135 -72 62 -146 -80 -60 -29 -45 -44 vhcurveto
          50 -41 -67 24 -92 hhcurveto
          -216 -72 -177 -170 -139 84 -64 167 77 58 27 44 43 hvcurveto
          -49 40 65 -22 91 hhcurveto
          126 96 61 137 21 hvcurveto
          hintmask 10110111
          -135 hlineto
          -61 -11 -38 -31 -63 hhcurveto
          -68 -27 31 60 hvcurveto
          hintmask 01110111
          -22 callsubr
          vhcurveto
          220 91 rmoveto
          -202 hlineto
          hintmask 01101111
          72 21 39 37 70 hhcurveto
          46 29 -22 -53 hvcurveto
          hintmask 01110111
          -10 -1 -12 -2 -12 vhcurveto
          -509 -222 rmoveto
          -70 -29 35 66 16 1 18 7 36 hvcurveto
          101 21 39 54 88 hhcurveto
          70 30 -35 -66 -16 -2 -18 -6 -36 hvcurveto
          -101 -16 -44 -54 -89 hhcurveto
          endchar
        </CharString>
        <CharString name="ogonek">
          -350 -182 69 -69 194 hstemhm
          69 112 hintmask 10100000
          235 -168 rmoveto
          66 callsubr
          hvcurveto
          hintmask 01100000
          33 25 33 20 17 vhcurveto
          4 -85 vlineto
          hintmask 10100000
          -33 -26 -39 -36 -55 -9 callsubr
          endchar
        </CharString>
        <CharString name="ograve">
          -30 callsubr
          281 591 -84 callsubr
          69 -732 -107 callgsubr
          endchar
        </CharString>
        <CharString name="ohorn">
          -66 callsubr
          11 137 hstemhm
          -53 callsubr
          hintmask 00000000
          hintmask 11111000
          540 686 -54 callgsubr
          hintmask 11011000
          -88 callgsubr
          hintmask 11111000
          -72 callgsubr
          hintmask 11011000
          13 108 49 52 88 -1 74 1 44 -42 1 -68 rrcurveto
          hintmask 11111000
          46 callgsubr
        </CharString>
        <CharString name="ohungarumlaut">
          -30 callsubr
          296 -21 callsubr
          -101 -603 -107 callgsubr
          endchar
        </CharString>
        <CharString name="omacron">
          -66 callsubr
          73 88 hstem
          -53 callsubr
          vstem
          184 611 -65 callgsubr
          66 -711 -107 callgsubr
          endchar
        </CharString>
        <CharString name="one">
          0 112 408 85 81 -20 hstem
          24 465 vstem
          24 hmoveto
          445 12 callgsubr
          -147 hlineto
          101 574 rlineto
          -71 hlineto
          -76 -40 -105 -35 -61 -6 -15 -85 rcurveline
          162 hlineto
          -72 -408 rlineto
          -161 hlineto
          endchar
        </CharString>
        <CharString name="oneeighth">
          52 callsubr
          -33 75 186 55 41 -20 32 -20 hstemhm
          496 68 callgsubr
          hintmask 1101101101000000
          54 -12 0 callgsubr
          -671 -369 26 callgsubr
          hintmask 1101110101000000
          50 282 rlineto
          -43 hlineto
          -39 -20 -56 -18 -34 -3 -10 -55 rcurveline
          82 hlineto
          -33 -186 rlineto
          -82 hlineto
          653 -223 rmoveto
          hintmask 1110101010100000
          -10 callsubr
          hintmask 1101101101000000
          8 callgsubr
          vhcurveto
          hintmask 1101110101000000
          31 -12 26 -29 16 vhcurveto
          hintmask 1110101010100000
          -10 callgsubr
          hintmask 1101101101000000
          -16 callgsubr
        </CharString>
        <CharString name="onehalf">
          151 0 75 -66 -21 312 69 -39 67 callgsubr
          520 47 callgsubr
          hintmask 0000000000000000
          hintmask 0101101110000000
          39 -12 0 callgsubr
          -661 -368 26 callgsubr
          hintmask 1001110110000000
          -19 callgsubr
          410 -405 56 callgsubr
          hintmask 1010101110000000
          -33 callgsubr
          endchar
        </CharString>
        <CharString name="onequarter">
          95 callgsubr
          190 67 callgsubr
          38 767 hintmask 00000000
          hintmask 01011011
          38 -12 0 callgsubr
          -661 -368 26 callgsubr
          hintmask 10011101
          -19 callgsubr
          543 -404 rmoveto
          83 hlineto
          hintmask 00111011
          13 70 rlineto
          40 hlineto
          hintmask 10011011
          16 callsubr
          hintmask 00111011
          74 callgsubr
        </CharString>
        <CharString name="ordfeminine">
          -313 403 73 191 62 -62 70 -45 -20 hstemhm
          61 86 hintmask 10101000
          369 413 rmoveto
          10 58 rlineto
          -18 hlineto
          -9 -8 5 12 hvcurveto
          hintmask 11001000
          3 1 9 41 229 vhcurveto
          -70 hlineto
          hintmask 10011000
          -19 -37 rlineto
          -4 hlineto
          hintmask 10101000
          29 -18 -28 16 -44 hhcurveto
          -102 -40 -123 -85 -83 42 -43 62 37 35 18 32 23 hvcurveto
          4 hlineto
          -30 3 20 -20 32 hhcurveto
          23 17 6 4 10 hvcurveto
          -172 63 rmoveto
          -35 -15 20 38 46 15 87 66 33 18 -21 -40 -44 -19 -86 -63 hvcurveto
          endchar
        </CharString>
        <CharString name="ordmasculine">
          -318 404 68 197 68 hstem
          58 86 161 87 vstem
          213 404 rmoveto
          133 46 106 103 85 -52 39 -105 -133 -44 -107 -103 -84 51 -39 104 hvcurveto
          -6 68 rmoveto
          -44 -19 21 40 10 1 11 4 21 hvcurveto
          61 11 26 33 55 hhcurveto
          45 19 -21 -40 -10 -1 -11 -4 -21 hvcurveto
          -61 -10 -27 -33 -56 hhcurveto
          endchar
        </CharString>
        <CharString name="orthogonal">
          296 0 89 hstem
          121 641 vstem
          121 hmoveto
          625 hlineto
          16 89 rlineto
          -536 hlineto
          95 536 rlineto
          -89 hlineto
          endchar
        </CharString>
        <CharString name="oslash">
          -66 callsubr
          hstem
          18 142 266 143 vstem
          -22 -49 -59 callsubr
        </CharString>
        <CharString name="oslashacute">
          -66 callsubr
          53 132 hstem
          18 142 266 143 vstem
          373 591 -102 callsubr
          -285 -640 -59 callsubr
        </CharString>
        <CharString name="otilde">
          -66 callsubr
          63 83 callsubr
          -53 callsubr
          hintmask 11011100
          522 49 callsubr
          hintmask 11101100
          -41 callgsubr
          -47 -34 37 -51 hhcurveto
          -67 -35 -57 -65 -11 hvcurveto
          69 hlineto
          hintmask 11011100
          6 callgsubr
          hintmask 11101100
          47 34 -37 50 hhcurveto
          hintmask 11011100
          68 36 57 65 11 hvcurveto
          -257 -735 -107 callgsubr
          endchar
        </CharString>
        <CharString name="p">
          -72 -152 -21 161 115 316 107 -107 119 hstemhm
          427 142 hintmask 11011000
          22 callsubr
          -71 64 -119 -59 -56 -31 -50 -39 hvcurveto
          -7 hlineto
          hintmask 11101000
          69 -114 vlineto
          176 -423 rmoveto
          -59 -32 34 67 hvcurveto
          hintmask 11011000
          91 callgsubr
          vhcurveto
          hintmask 11101000
          -75 -22 -144 -125 vhcurveto
          endchar
        </CharString>
        <CharString name="paragraph">
          625 61 hstem
          40 553 vstem
          297 -168 rmoveto
          84 hlineto
          140 793 rlineto
          61 hlineto
          11 61 rlineto
          -286 hlineto
          -155 -112 -100 -156 -119 83 -58 98 hvcurveto
          -74 -421 rlineto
          84 hlineto
          140 793 rlineto
          66 hlineto
          endchar
        </CharString>
        <CharString name="parenleft">
          -350 736 -20 hstem
          39 124 vstem
          138 -157 rmoveto
          88 hlineto
          -39 88 -24 114 115 vvcurveto
          201 94 214 126 161 vhcurveto
          -92 hlineto
          -157 -150 -95 -206 -201 vvcurveto
          -124 34 -116 65 -96 vhcurveto
          endchar
        </CharString>
        <CharString name="parenright">
          -350 736 -20 hstem
          147 124 vstem
          -73 -157 rmoveto
          92 hlineto
          157 150 95 206 201 vvcurveto
          124 -34 116 -65 96 vhcurveto
          -88 hlineto
          39 -88 24 -114 -115 vvcurveto
          -201 -94 -214 -126 -161 vhcurveto
          endchar
        </CharString>
        <CharString name="partialdiff">
          -189 -12 102 262 97 187 99 hstem
          2 125 224 118 vstem
          338 384 rmoveto
          -4 hlineto
          24 -9 -36 41 -70 hhcurveto
          -95 -122 -115 -183 -92 53 -71 115 178 121 254 254 168 -90 71 -103 -52 -40 -13 -16 -31 hvcurveto
          -18 -104 rlineto
          18 28 37 16 47 hhcurveto
          71 33 -44 -111 -28 -3 -49 -10 -20 hvcurveto
          -25 -105 rmoveto
          -97 -24 -55 -92 -59 hhcurveto
          -32 -16 28 44 97 63 93 55 44 21 -40 -33 3 hvcurveto
          endchar
        </CharString>
        <CharString name="percent">
          206 -12 81 -48 -21 268 81 -12 81 199 81 -12 -20 hstemhm
          70 104 137 104 58 104 137 104 hintmask 1001101111000000
          410 517 9 callgsubr
          hintmask 0101011111000000
          -329 -517 rmoveto
          102 hlineto
          628 686 rlineto
          -104 hlineto
          -482 -268 rmoveto
          -38 -13 21 34 hvcurveto
          hintmask 1001101111000000
          11 1 12 6 29 vhcurveto
          63 callsubr
          hintmask 0101011111000000
          -54 -11 -15 -38 -53 hhcurveto
          hintmask 1010101111000000
          588 -250 9 callgsubr
          -185 -99 rmoveto
          -38 -13 21 34 11 1 12 6 29 hvcurveto
          63 callsubr
          -54 -11 -15 -38 -53 hhcurveto
          endchar
        </CharString>
        <CharString name="period">
          -405 0 137 hstem
          14 163 vstem
          14 hmoveto
          -14 callsubr
          endchar
        </CharString>
        <CharString name="periodcentered">
          -350 289 137 hstem
          91 163 vstem
          91 289 rmoveto
          -14 callsubr
          endchar
        </CharString>
        <CharString name="perthousand">
          317 -11 81 -49 -21 269 81 -13 81 199 81 -12 -20 hstemhm
          42 104 91 104 -3 104 91 104 19 104 91 104 hintmask 0000000000000000
          hintmask 0101101100000000
          175 337 rmoveto
          -24 callsubr
          -129 -337 rmoveto
          88 hlineto
          hintmask 0001011000000000
          499 686 rlineto
          -90 hlineto
          -369 -268 rmoveto
          -21 -7 16 26 hvcurveto
          hintmask 0001101100000000
          14 1 17 7 34 vhcurveto
          22 callgsubr
          hintmask 0001011000000000
          -55 -10 -12 -37 -33 hhcurveto
          hintmask 1010000011000000
          297 -429 rmoveto
          -24 callsubr
          hintmask 1010000010110000
          318 hmoveto
          -24 callsubr
          -319 81 rmoveto
          92 callsubr
          hintmask 1010000001000000
          22 callgsubr
          hintmask 1010000010110000
          -55 -10 -12 -37 -33 hhcurveto
          318 hmoveto
          92 callsubr
          22 callgsubr
          -55 -10 -12 -37 -33 hhcurveto
          endchar
        </CharString>
        <CharString name="peseta">
          411 -12 106 -106 112 -112 179 -146 -21 236 123 13 166 -124 112 -94 106 25 123 hstemhm
          636 127 -80 137 74 137 -101 129 hintmask 0000000000000000
          hintmask 0010110010101000
          929 372 rmoveto
          123 hlineto
          1 5 6 25 18 vvcurveto
          75 -73 43 -103 vhcurveto
          hintmask 0001101010110000
          -30 -27 -4 -8 -26 hvcurveto
          -47 callsubr
          33 148 -82 callsubr
          -25 -148 rlineto
          -32 hlineto
          106 -18 -60 54 -144 hhcurveto
          -151 -17 callsubr
          143 hlineto
          42 236 rlineto
          27 hlineto
          159 74 67 111 35 hvcurveto
          23 hlineto
          hintmask 0010100110110000
          -44 -235 -10 -78 -13 vvcurveto
          -55 26 -45 81 43 30 16 0 vhcurveto
          11 62 rlineto
          -49 23 61 -29 91 hhcurveto
          105 104 46 142 hvcurveto
          172 -211 -49 83 vvcurveto
          32 27 18 33 vhcurveto
          hintmask 0010100110101000
          30 20 -15 -30 hvcurveto
          hintmask 0010110010101000
          -5 0 -5 -1 -5 vhcurveto
          hintmask 0100101011010000
          -687 -13 rmoveto
          -29 hlineto
          36 204 rlineto
          19 hlineto
          61 31 -28 -48 -78 -51 -50 -67 hvcurveto
          396 -259 rmoveto
          -8 hlineto
          hintmask 0100101010110000
          -24 -13 11 21 3 10 71 39 208 hvcurveto
          54 hlineto
          0 -13 -26 -26 vvcurveto
          hintmask 1000101010110000
          -169 211 47 -90 vvcurveto
          -44 -42 -12 -27 vhcurveto
          hintmask 1000101011010000
          -31 -31 13 40 hvcurveto
          hintmask 0010101011010000
          4 0 4 3 12 vhcurveto
          -123 hlineto
          hintmask 0100101011010000
          -4 -8 -3 -22 -14 vvcurveto
          -8 1 -7 1 -8 vhcurveto
          endchar
        </CharString>
        <CharString name="pi">
          83 21 -21 414 112 hstem
          441 136 vstem
          446 hmoveto
          134 hlineto
          -2 9 -1 11 13 vvcurveto
          28 5 39 10 56 vhcurveto
          45 258 rlineto
          104 hlineto
          30 112 rlineto
          -503 hlineto
          -108 -64 -11 -19 -36 hvcurveto
          -95 vlineto
          9 30 30 4 78 hhcurveto
          -25 -117 -70 -199 -59 -98 rrcurveto
          142 hlineto
          54 81 70 216 30 117 rrcurveto
          160 hlineto
          -47 -267 rlineto
          -8 -48 -4 -37 -26 vvcurveto
          -17 2 -13 3 -6 vhcurveto
          endchar
        </CharString>
        <CharString name="plus">
          -99 21 -21 203 104 hstem
          41 491 vstem
          330 203 20 callsubr
          -36 -203 rlineto
          107 hlineto
          endchar
        </CharString>
        <CharString name="plusminus">
          -134 0 104 248 104 hstem
          -19 552 vstem
          331 352 20 callsubr
          -35 -203 rlineto
          107 hlineto
          -315 -149 rmoveto
          471 hlineto
          19 104 rlineto
          -471 hlineto
          endchar
        </CharString>
        <CharString name="product">
          140 598 125 hstem
          44 803 vstem
          461 -128 rmoveto
          144 hlineto
          128 726 rlineto
          91 hlineto
          23 125 rlineto
          -741 hlineto
          -23 -125 rlineto
          89 hlineto
          -128 -726 rlineto
          145 hlineto
          128 726 rlineto
          272 hlineto
          endchar
        </CharString>
        <CharString name="q">
          -72 -152 -21 161 -38 callsubr
          89 callgsubr
          hintmask 11101000
          315 -173 39 callsubr
          hintmask 11011000
          123 699 rlineto
          -117 hlineto
          hintmask 11101000
          -21 -69 rlineto
          -7 hlineto
          54 -26 -56 27 -74 hhcurveto
          -190 -66 -202 -141 -142 74 -65 108 63 52 26 47 35 hvcurveto
          6 hlineto
          -106 46 rmoveto
          -63 -27 34 63 75 27 144 120 59 32 -34 -67 -73 -35 -142 90 callgsubr
        </CharString>
        <CharString name="question">
          -72 0 137 440 121 hstem
          73 139 204 154 vstem
          201 197 rmoveto
          125 hlineto
          5 28 rlineto
          22 118 217 13 179 vvcurveto
          108 -81 55 -147 -151 -118 -90 -149 vhcurveto
          139 hlineto
          61 40 57 79 72 13 -32 -25 -94 -178 1 -30 -187 vhcurveto
          -44 -240 -8 callgsubr
          endchar
        </CharString>
        <CharString name="questiondown">
          -72 -172 121 440 137 hstem
          40 154 204 139 vstem
          284 389 -8 callgsubr
          229 -459 rmoveto
          -139 hlineto
          -61 -40 -57 -79 -72 -13 32 25 94 178 -1 30 187 vhcurveto
          7 43 rlineto
          -125 hlineto
          -5 -28 rlineto
          -22 -118 -217 -13 -179 vvcurveto
          -108 81 -55 147 151 118 90 149 vhcurveto
          endchar
        </CharString>
        <CharString name="quotedbl">
          -209 407 279 hstem
          89 395 vstem
          89 407 18 callsubr
          220 -132 18 callsubr
          endchar
        </CharString>
        <CharString name="quotedblbase">
          -183 0 137 hstem
          -13 413 vstem
          -13 -156 -57 callgsubr
          141 -156 -57 callgsubr
          endchar
        </CharString>
        <CharString name="quotedblleft">
          -183 393 137 156 -20 hstem
          81 413 vstem
          81 393 7 callsubr
          201 -125 7 callsubr
          endchar
        </CharString>
        <CharString name="quotedblright">
          -183 549 137 hstem
          71 413 vstem
          71 393 -57 callgsubr
          141 -156 -57 callgsubr
          endchar
        </CharString>
        <CharString name="quoteleft">
          -405 393 137 156 -20 hstem
          81 190 vstem
          81 393 7 callsubr
          endchar
        </CharString>
        <CharString name="quotereversed">
          -405 549 137 hstem
          106 160 vstem
          143 393 rmoveto
          72 hlineto
          -28 156 rlineto
          55 hlineto
          24 137 -45 callsubr
          -22 -125 rlineto
          endchar
        </CharString>
        <CharString name="quoteright">
          -405 549 137 hstem
          71 190 vstem
          71 393 -57 callgsubr
          endchar
        </CharString>
        <CharString name="quotesinglbase">
          -405 0 137 hstem
          -13 190 vstem
          -13 -156 -57 callgsubr
          endchar
        </CharString>
        <CharString name="quotesingle">
          -445 407 279 hstemhm
          89 175 hintmask 00000000
          hintmask 11000000
          89 407 18 callsubr
          endchar
        </CharString>
        <CharString name="r">
          -294 21 81 callsubr
          17 395 hintmask 10101000
          17 hmoveto
          -24 callgsubr
          45 254 rlineto
          96 17 45 51 91 hhcurveto
          38 hlineto
          hintmask 10011000
          22 128 rlineto
          hintmask 10101000
          -18 callsubr
          hintmask 11001000
          85 -113 vlineto
          endchar
        </CharString>
        <CharString name="racute">
          -294 21 -9 callgsubr
          82 132 hstemhm
          17 421 hintmask 10101100
          307 591 -102 callsubr
          -180 -591 -37 callgsubr
        </CharString>
        <CharString name="radical">
          -134 -148 1005 hstem
          24 612 vstem
          197 -148 rmoveto
          100 hlineto
          339 1005 rlineto
          -79 hlineto
          -277 -835 -71 373 -185 -72 13 -80 74 26 rlineto
          endchar
        </CharString>
        <CharString name="rcaron">
          -294 21 -9 callgsubr
          79 135 hstemhm
          17 424 hintmask 10101100
          191 588 -98 callsubr
          -92 -723 -37 callgsubr
        </CharString>
        <CharString name="rcommaaccent">
          -294 -138 98 61 81 callsubr
          -22 434 -3 callsubr
          -132 -756 rmoveto
          73 hlineto
          -70 callgsubr
        </CharString>
        <CharString name="registered">
          54 -12 62 244 67 124 66 85 62 hstem
          13 64 143 78 164 79 118 -30 callgsubr
          107 88 rmoveto
          84 hlineto
          -27 54 -32 61 -28 55 rrcurveto
          47 21 22 42 54 vvcurveto
          75 -43 51 -86 vhcurveto
          -192 -413 78 156 99 hlineto
          5 67 rmoveto
          -104 124 104 hlineto
          38 22 -21 -39 -41 -25 -23 -35 hvcurveto
          endchar
        </CharString>
        <CharString name="revlogicalnot">
          -99 357 98 hstem
          18 547 vstem
          145 357 rmoveto
          402 hlineto
          18 98 rlineto
          -500 hlineto
          -47 -262 rlineto
          98 hlineto
          endchar
        </CharString>
        <CharString name="ring">
          -350 556 57 88 57 hstem
          65 58 90 57 vstem
          155 556 -78 callgsubr
          endchar
        </CharString>
        <CharString name="s">
          -12 106 338 106 -34 callsubr
          hintmask 00000000
          hintmask 11010100
          28 callsubr
          hintmask 11011000
          -27 callgsubr
          hintmask 11101000
          -48 -48 14 44 6 3 9 0 hvcurveto
          -133 hlineto
          0 -7 -16 -23 vvcurveto
          -85 82 -55 147 131 123 47 145 vhcurveto
          hintmask 11011000
          -27 callsubr
          hintmask 11100100
          49 32 -16 -34 hvcurveto
          endchar
        </CharString>
        <CharString name="sacute">
          -12 106 338 106 53 132 -34 callsubr
          hintmask 11110100
          390 591 -102 callsubr
          hintmask 11101010
          96 -219 -86 callgsubr
          endchar
        </CharString>
        <CharString name="sacute.loclPLK">
          -12 106 338 106 53 132 -34 callsubr
          hintmask 11110100
          271 591 -49 callgsubr
          hintmask 11101010
          56 -351 -86 callgsubr
          endchar
        </CharString>
        <CharString name="scaron">
          -12 106 338 106 50 135 -34 callsubr
          hintmask 11110100
          274 588 -98 callsubr
          hintmask 11101010
          184 -351 -86 callgsubr
          endchar
        </CharString>
        <CharString name="scedilla">
          38 callgsubr
          23 104 -104 177 -156 -21 442 106 hstemhm
          8 137 -87 141 49 108 -7 142 -114 139 hintmask 0000000000000000
          hintmask 1010011101000000
          169 -77 rmoveto
          -23 callgsubr
          hintmask 0100011100100000
          -9 -49 rlineto
          hintmask 1010011101000000
          -14 callgsubr
          7 23 rlineto
          hintmask 1000011010100000
          115 9 100 50 131 -27 callsubr
          hintmask 1000011010010000
          49 32 -16 -34 hvcurveto
          -1 -10 rlineto
          -64 callgsubr
          hintmask 1001001010100000
          -27 callgsubr
          hintmask 1001001100100000
          -48 -48 14 44 hvcurveto
          hintmask 1000101100100000
          6 3 9 0 vhcurveto
          -133 hlineto
          0 -7 -16 -23 vvcurveto
          -76 65 -52 118 -10 vhcurveto
          endchar
        </CharString>
        <CharString name="scircumflex">
          -12 106 338 106 50 135 -66 66 -34 callsubr
          hintmask 11101010
          388 588 -103 callgsubr
          hintmask 11011010
          -13 callsubr
          hintmask 11100101
          33 -285 rmoveto
          -64 callgsubr
          hintmask 11100110
          -27 callgsubr
          hintmask 11101010
          -48 -48 14 44 6 3 9 0 hvcurveto
          -133 hlineto
          0 -7 -16 -23 vvcurveto
          -85 82 -55 147 131 123 47 145 vhcurveto
          hintmask 11100110
          -27 callsubr
          hintmask 11101001
          49 32 -16 -34 hvcurveto
          endchar
        </CharString>
        <CharString name="scommaaccent">
          -138 98 28 106 338 106 -34 callsubr
          hintmask 00000000
          hintmask 01101010
          28 callsubr
          hintmask 01101100
          -27 callgsubr
          hintmask 01110100
          -48 -48 14 44 6 3 9 0 hvcurveto
          -133 hlineto
          0 -7 -16 -23 vvcurveto
          -85 82 -55 147 131 123 47 145 vhcurveto
          hintmask 01101100
          -25 callgsubr
          -253 -612 rmoveto
          73 hlineto
          -70 callgsubr
        </CharString>
        <CharString name="second">
          -204 506 180 hstem
          74 398 vstem
          74 506 35 callgsubr
          135 -180 35 callgsubr
          endchar
        </CharString>
        <CharString name="section">
          -182 106 -106 166 548 166 -108 108 hstemhm
          -6 145 -107 139 -76 141 65 141 -77 139 -106 145 hintmask 0000000000000000
          hintmask 0101100001000000
          140 -16 rmoveto
          -139 hlineto
          -1 -5 -6 -22 -16 vvcurveto
          hintmask 1001100100000000
          -78 88 -45 123 128 109 60 122 42 -18 32 -28 25 vhcurveto
          hintmask 1001001010000000
          70 38 38 56 59 171 -268 14 91 vvcurveto
          38 39 24 53 vhcurveto
          hintmask 1001100001000000
          44 26 -15 -31 hvcurveto
          hintmask 1010100001000000
          -4 0 -4 -1 -4 vhcurveto
          139 hlineto
          2 7 5 21 16 vvcurveto
          hintmask 1001001001000000
          77 -89 45 -122 -129 -108 -58 -117 -47 18 -34 28 -25 vhcurveto
          hintmask 1001010100000000
          -72 -43 -37 -57 -61 -166 269 -14 -88 vvcurveto
          -39 -41 -25 -51 vhcurveto
          hintmask 1001100001000000
          -44 -26 15 33 hvcurveto
          hintmask 0101100001000000
          3 0 5 1 4 vhcurveto
          hintmask 1001010010000000
          180 164 rmoveto
          -73 31 -76 31 67 vvcurveto
          36 16 28 29 26 vhcurveto
          73 -35 76 -27 -67 vvcurveto
          -36 -16 -29 -29 -25 vhcurveto
          endchar
        </CharString>
        <CharString name="semicolon">
          -350 0 137 252 137 hstem
          11 259 vstem
          107 389 rmoveto
          -14 callsubr
          -121 -682 -57 callgsubr
          endchar
        </CharString>
        <CharString name="seven">
          21 -21 564 122 hstem
          68 520 vstem
          68 hmoveto
          165 hlineto
          3 24 2 8 3 19 37 210 160 198 134 136 16 91 rcurveline
          -493 hlineto
          -22 -122 rlineto
          325 hlineto
          -147 -139 -144 -205 -39 -220 rrcurveto
          endchar
        </CharString>
        <CharString name="seveneighths">
          52 callsubr
          250 74 12 -20 hstemhm
          467 68 callgsubr
          hintmask 1111010100000000
          15 -12 rmoveto
          96 hlineto
          hintmask 1110110100000000
          671 710 rlineto
          -96 hlineto
          -582 -374 rmoveto
          96 hlineto
          hintmask 1111010100000000
          6 109 91 116 78 81 10 56 rcurveline
          -263 hlineto
          -13 -74 rlineto
          161 hlineto
          hintmask 1110110100000000
          -75 -72 -72 -102 -19 -114 rrcurveto
          hintmask 1111010100000000
          587 -143 rmoveto
          hintmask 1111001010000000
          -10 callsubr
          hintmask 1111010100000000
          8 callgsubr
          31 -12 26 -29 16 vhcurveto
          hintmask 1111001010000000
          -10 callgsubr
          hintmask 1111010100000000
          -16 callgsubr
        </CharString>
        <CharString name="six">
          -12 112 230 109 44 215 -111 111 hstemhm
          27 138 200 144 -114 138 hintmask 00000000
          hintmask 11101010
          391 483 39 callsubr
          3 18 2 18 17 vvcurveto
          hintmask 11011010
          95 -60 67 -142 -145 -101 -88 -283 -46 vhcurveto
          -8 -47 -4 -41 -35 vvcurveto
          -161 84 -55 141 vhcurveto
          hintmask 11011100
          141 116 109 167 107 -55 68 -125 -79 -47 -45 -9 -13 hvcurveto
          hintmask 11011010
          124 24 24 78 89 hhcurveto
          47 21 -24 -43 hvcurveto
          hintmask 11101010
          -11 -2 -12 -2 -14 vhcurveto
          hintmask 11011100
          -145 -383 rmoveto
          -55 -26 34 49 87 49 60 72 55 24 -32 -50 -81 -44 -67 -75 hvcurveto
          endchar
        </CharString>
        <CharString name="slash">
          -405 735 -20 hstem
          -68 414 vstem
          -68 -49 rmoveto
          95 hlineto
          319 784 rlineto
          -95 hlineto
          endchar
        </CharString>
        <CharString name="space">
          -405 endchar
        </CharString>
        <CharString name="sterling">
          0 112 170 112 192 44 callsubr
          42 170 rlineto
          158 hlineto
          19 112 rlineto
          -156 hlineto
          21 118 rlineto
          44 8 36 30 50 hhcurveto
          45 26 -23 -39 -5 0 -5 -4 -23 hvcurveto
          136 hlineto
          5 25 1 10 22 vvcurveto
          100 -80 50 -129 -128 -82 -66 -133 -24 vhcurveto
          -19 -105 rlineto
          -75 hlineto
          -18 -112 rlineto
          74 hlineto
          -30 -170 rlineto
          -61 hlineto
          endchar
        </CharString>
        <CharString name="summation">
          30 -128 125 601 125 -114 114 hstemhm
          -38 762 hintmask 11010000
          -38 -128 rmoveto
          630 hlineto
          23 125 rlineto
          -436 4 hlineto
          322 314 -215 279 rlineto
          4 415 vlineto
          23 125 rlineto
          -602 hlineto
          hintmask 10110000
          -21 -114 229 -298 -351 -339 rlineto
          endchar
        </CharString>
        <CharString name="t">
          -350 -12 80 callsubr
          hintmask 11100000
          244 4 -75 callgsubr
          endchar
        </CharString>
        <CharString name="tbar">
          -350 -12 112 154 71 89 50 callsubr
          hintmask 11110000
          244 4 rmoveto
          17 96 rlineto
          -48 hlineto
          -24 -13 11 21 2 0 3 20 117 hvcurveto
          92 hlineto
          12 71 rlineto
          -91 hlineto
          4 26 6 29 6 34 rrcurveto
          91 12 callgsubr
          -91 hlineto
          33 148 rlineto
          -144 hlineto
          -26 -148 rlineto
          -63 hlineto
          -20 -112 rlineto
          63 hlineto
          -6 -34 -5 -29 -5 -26 rrcurveto
          -63 hlineto
          -11 -71 rlineto
          61 hlineto
          -20 -113 -4 -29 -19 vvcurveto
          -56 29 -49 97 79 callgsubr
          vhcurveto
          endchar
        </CharString>
        <CharString name="tcaron">
          -204 -12 112 314 112 -84 84 33 115 -115 127 hstemhm
          25 524 -514 141 hintmask 00000000
          hintmask 10101100
          368 442 rmoveto
          72 hlineto
          89 129 11 callgsubr
          53 hlineto
          hintmask 11010010
          -198 -555 -75 callgsubr
          endchar
        </CharString>
        <CharString name="thorn">
          -72 -152 -21 161 115 316 119 199 -20 hstem
          427 142 vstem
          22 callsubr
          -69 64 -116 -57 -55 -30 -43 -35 hvcurveto
          -7 hlineto
          48 272 -82 callsubr
          139 -634 rmoveto
          -59 -32 34 67 91 callgsubr
          -75 -22 -144 -125 hvcurveto
          endchar
        </CharString>
        <CharString name="three">
          -12 112 193 112 181 112 hstemhm
          4 140 210 140 -100 143 hintmask 11111000
          398 352 rmoveto
          1 4 rlineto
          hintmask 11110100
          74 30 64 52 99 vvcurveto
          104 -82 57 -129 -126 -104 -74 -114 -19 vhcurveto
          -5 -28 80 callgsubr
          3 19 rlineto
          57 9 42 28 55 hhcurveto
          45 29 -19 -43 -81 -57 -38 -56 hvcurveto
          -54 hlineto
          -19 -112 rlineto
          hintmask 11111000
          51 hlineto
          51 44 -15 -58 -83 -54 -37 -65 -59 -32 24 45 7 0 7 5 29 hvcurveto
          -139 hlineto
          -6 -32 0 -14 -13 vvcurveto
          -101 78 -64 155 141 116 86 138 74 -40 46 -56 20 vhcurveto
          endchar
        </CharString>
        <CharString name="threeeighths">
          52 callsubr
          -37 67 callsubr
          52 84 94 84 -63 85 148 68 callgsubr
          hintmask 1101101110101000
          38 -12 0 callgsubr
          -443 -183 rmoveto
          1 4 rlineto
          hintmask 1101101101101000
          -15 callsubr
          hintmask 1101110101101000
          -2 -12 rlineto
          83 hlineto
          hintmask 1101101101101000
          -7 callsubr
          hintmask 1101101110101000
          -35 callgsubr
          69 callsubr
          442 -334 rmoveto
          hintmask 1110101110010100
          -10 callsubr
          hintmask 1101101110101000
          8 callgsubr
          31 -12 26 -29 16 vhcurveto
          hintmask 1110101110010100
          -10 callgsubr
          hintmask 1101101110101000
          -16 callgsubr
        </CharString>
        <CharString name="threequarters">
          95 callgsubr
          185 67 callsubr
          61 84 94 84 -63 85 hintmask 0000000000000000
          hintmask 0101101110000000
          42 -12 0 callgsubr
          -438 -183 rmoveto
          1 4 rlineto
          hintmask 1001101101000000
          -15 callsubr
          hintmask 1001110101000000
          -2 -12 rlineto
          83 hlineto
          hintmask 1001101101000000
          -7 callsubr
          hintmask 1001101110000000
          -35 callgsubr
          vhcurveto
          hintmask 0101101110000000
          69 callsubr
          hintmask 1001101110000000
          333 -514 rmoveto
          83 hlineto
          hintmask 0011101110000000
          13 70 rlineto
          40 hlineto
          hintmask 1001101110000000
          16 callsubr
          hintmask 0011101110000000
          74 callgsubr
        </CharString>
        <CharString name="tilde">
          -350 601 83 callsubr
          -11 356 hintmask 01100000
          345 49 callsubr
          hintmask 10100000
          -41 callgsubr
          -47 -34 37 -51 hhcurveto
          -67 -35 -57 -65 -11 hvcurveto
          69 hlineto
          hintmask 01100000
          6 callgsubr
          hintmask 10100000
          47 34 -37 50 hhcurveto
          hintmask 01100000
          68 36 57 65 11 hvcurveto
          endchar
        </CharString>
        <CharString name="trademark">
          317 613 73 hstem
          113 835 vstem
          193 280 rmoveto
          77 hlineto
          59 333 rlineto
          138 hlineto
          12 73 rlineto
          -354 hlineto
          -12 -73 80 callgsubr
          548 -334 rmoveto
          77 hlineto
          71 407 rlineto
          -116 hlineto
          -156 -306 -46 306 rlineto
          -109 hlineto
          -71 -407 rlineto
          71 hlineto
          53 304 50 -304 rlineto
          72 hlineto
          158 306 rlineto
          endchar
        </CharString>
        <CharString name="two">
          0 122 464 112 hstem
          408 140 vstem
          -18 hmoveto
          479 hlineto
          21 122 rlineto
          -291 hlineto
          57 80 300 85 240 vvcurveto
          68 -30 103 -182 -125 -125 -60 -188 -15 vhcurveto
          136 hlineto
          8 41 rlineto
          66 13 37 29 65 hhcurveto
          55 23 -33 -34 -184 -381 -63 -39 -236 hvcurveto
          endchar
        </CharString>
        <CharString name="u">
          -62 callsubr
          29 callgsubr
          hintmask 01110000
          367 hmoveto
          -68 callgsubr
          hintmask 10110000
          -104 callsubr
          endchar
        </CharString>
        <CharString name="uacute">
          -5 callgsubr
          405 591 -102 callsubr
          72 -591 -90 callsubr
        </CharString>
        <CharString name="ubreve">
          -62 callsubr
          80 89 -89 137 29 callgsubr
          19 92 hintmask 01101100
          524 60 callsubr
          hintmask 01110110
          -40 callgsubr
          hintmask 01101110
          -97 callgsubr
          hintmask 01101100
          -52 callgsubr
          -157 -2 callgsubr
          hintmask 10101100
          -104 callsubr
          endchar
        </CharString>
        <CharString name="ucircumflex">
          -62 callsubr
          82 135 -66 66 29 callgsubr
          hintmask 01110100
          403 588 -103 callgsubr
          hintmask 01101100
          -13 callsubr
          9 -657 -50 callgsubr
          hintmask 10110100
          -104 callsubr
          endchar
        </CharString>
        <CharString name="udieresis">
          -62 callsubr
          99 118 29 callgsubr
          hintmask 01111000
          190 605 rmoveto
          117 hlineto
          21 118 rlineto
          -118 hlineto
          189 -118 rmoveto
          119 hlineto
          21 118 rlineto
          -119 hlineto
          -53 -723 -90 callsubr
        </CharString>
        <CharString name="ugrave">
          -5 callgsubr
          300 591 -84 callsubr
          152 -720 -90 callsubr
        </CharString>
        <CharString name="uhorn">
          -62 callsubr
          80 137 29 callgsubr
          hintmask 01111000
          585 723 -29 callsubr
          hintmask 10111000
          -104 callsubr
          hintmask 01111000
          -36 callgsubr
          endchar
        </CharString>
        <CharString name="uhungarumlaut">
          -5 callgsubr
          315 -21 callsubr
          -18 -591 -90 callsubr
        </CharString>
        <CharString name="umacron">
          -62 callsubr
          105 88 29 callgsubr
          hintmask 01111000
          203 611 -65 callgsubr
          149 -699 -90 callsubr
        </CharString>
        <CharString name="underscore">
          -160 98 hstem
          -78 572 vstem
          -78 -160 82 callgsubr
        </CharString>
        <CharString name="underscoredbl">
          -131 -312 91 68 91 hstem
          -103 596 vstem
          -76 -153 rmoveto
          552 hlineto
          17 91 rlineto
          -552 hlineto
          -44 -250 rmoveto
          551 hlineto
          17 91 rlineto
          -551 hlineto
          endchar
        </CharString>
        <CharString name="uni00A0">
          -405 endchar
        </CharString>
        <CharString name="uni00AD">
          24 callgsubr
        </CharString>
        <CharString name="uni00B2">
          -350 329 75 225 69 hstem
          79 47 callgsubr
          vstem
          31 329 56 callgsubr
          -33 callgsubr
          endchar
        </CharString>
        <CharString name="uni00B3">
          -350 325 67 callsubr
          52 84 94 84 -63 85 hintmask 11011100
          266 515 rmoveto
          1 4 rlineto
          hintmask 11011010
          -15 callsubr
          hintmask 11101010
          -2 -12 rlineto
          83 hlineto
          hintmask 11011010
          -7 callsubr
          hintmask 11011100
          -35 callgsubr
          69 callsubr
          endchar
        </CharString>
        <CharString name="uni00B5">
          -45 callgsubr
        </CharString>
        <CharString name="uni00B9">
          -350 330 75 185 55 41 -20 hstem
          50 252 vstem
          50 330 26 callgsubr
          -19 callgsubr
          endchar
        </CharString>
        <CharString name="uni0162">
          -72 38 callgsubr
          54 -21 561 125 hstemhm
          258 108 hintmask 10111100
          85 686 rmoveto
          -22 -125 74 callsubr
          -99 -561 rlineto
          28 hlineto
          -25 -77 rlineto
          -23 callgsubr
          hintmask 01111100
          -9 -49 rlineto
          hintmask 10111100
          -14 callgsubr
          11 33 rlineto
          31 hlineto
          99 561 36 callgsubr
          endchar
        </CharString>
        <CharString name="uni0163">
          -350 38 callgsubr
          21 112 -91 -21 426 112 hstemhm
          130 108 hintmask 10001110
          316 414 rmoveto
          20 112 rlineto
          -91 hlineto
          33 148 rlineto
          -144 hlineto
          -26 -148 rlineto
          -63 hlineto
          -20 -112 rlineto
          63 hlineto
          -44 -251 -9 -44 -26 vvcurveto
          hintmask 10101110
          -35 11 -32 33 -20 vhcurveto
          -28 -83 rlineto
          -23 callgsubr
          hintmask 01001110
          -9 -49 rlineto
          hintmask 10101110
          -14 callgsubr
          hintmask 10001110
          7 21 rlineto
          3 hlineto
          79 callgsubr
          hvcurveto
          hintmask 10010110
          17 96 rlineto
          -48 hlineto
          -24 -13 11 21 3 0 4 49 275 hvcurveto
          endchar
        </CharString>
        <CharString name="uni018F">
          75 -12 117 168 106 203 116 hstem
          47 146 392 148 vstem
          581 379 rmoveto
          -518 hlineto
          -8 -48 rlineto
          -5 -30 -3 -28 -26 vvcurveto
          -165 104 -94 187 134 94 33 77 63 vhcurveto
          64 77 40 150 105 vvcurveto
          170 -106 98 -191 -97 -77 -17 -35 -58 vhcurveto
          -70 -41 -43 -67 -16 -92 rrcurveto
          143 hlineto
          95 16 79 41 98 hhcurveto
          120 54 -50 -102 -16 -1 -17 -3 -18 hvcurveto
          -384 -106 rmoveto
          364 hlineto
          -116 -32 -58 -52 -110 hhcurveto
          -101 -67 36 90 13 1 14 3 15 hvcurveto
          endchar
        </CharString>
        <CharString name="uni019D">
          39 -6 callgsubr
          91 -21 686 -20 hstem
          -110 828 vstem
          577 686 rmoveto
          -69 -394 rlineto
          -2 -11 -6 -47 0 vvcurveto
          -5 hlineto
          0 -19 46 -9 18 vhcurveto
          -196 388 rlineto
          -141 hlineto
          -126 -713 rlineto
          -28 -5 -17 -15 -28 hhcurveto
          -48 89 callsubr
          -8 22 45 -8 34 hhcurveto
          99 41 71 70 12 hvcurveto
          76 435 rlineto
          3 18 5 42 0 vvcurveto
          5 hlineto
          0 14 -35 14 -28 vhcurveto
          196 -391 rlineto
          141 hlineto
          121 686 rlineto
          endchar
        </CharString>
        <CharString name="uni01C4">
          650 48 callsubr
          47 135 44 callgsubr
          1053 733 -98 callsubr
          -962 -868 rmoveto
          -78 callsubr
          554 -686 rmoveto
          -81 callgsubr
          -391 55 -73 callgsubr
          endchar
        </CharString>
        <CharString name="uni01C5">
          62 callsubr
          -98 135 hstemhm
          541 150 hintmask 00000000
          hintmask 10101100
          968 588 -98 callsubr
          -877 -723 rmoveto
          304 hlineto
          113 90 39 65 63 hvcurveto
          75 78 37 114 120 vvcurveto
          hintmask 01110100
          184 -106 86 -181 vhcurveto
          -274 hlineto
          175 -563 -73 callgsubr
          hintmask 10110100
          392 -123 rmoveto
          -87 callsubr
          endchar
        </CharString>
        <CharString name="uni01C6">
          428 -12 119 -107 34 callsubr
          -103 115 50 135 89 callgsubr
          hintmask 01101100
          369 hmoveto
          114 hlineto
          -22 callgsubr
          hintmask 10011100
          -45 -258 -39 callsubr
          488 519 -98 callsubr
          hintmask 01101100
          -189 -723 rmoveto
          -87 callsubr
          hintmask 10011100
          -347 46 0 callsubr
        </CharString>
        <CharString name="uni01C7">
          484 -12 122 -110 126 560 -20 hstemhm
          606 146 hintmask 01110000
          9 hmoveto
          -32 callsubr
          891 hmoveto
          hintmask 10110000
          -85 callgsubr
        </CharString>
        <CharString name="uni01C8">
          206 -6 callgsubr
          70 126 400 -20 93 124 -37 -20 hstemhm
          9 879 hintmask 11110100
          729 599 -42 callgsubr
          -742 -723 rmoveto
          -1 callgsubr
          hintmask 11101100
          99 560 -61 callsubr
          387 -756 -82 callgsubr
        </CharString>
        <CharString name="uni01C9">
          42 callsubr
          93 124 hstem
          13 542 vstem
          13 hmoveto
          -24 callgsubr
          -22 callgsubr
          256 -124 -42 callgsubr
          -234 -793 -82 callgsubr
        </CharString>
        <CharString name="uni01CA">
          595 76 callsubr
          hstemhm
          717 146 hintmask 00000000
          hintmask 01110000
          -21 callgsubr
          872 295 rmoveto
          hintmask 10110000
          -85 callgsubr
        </CharString>
        <CharString name="uni01CB">
          317 42 callsubr
          93 87 -87 124 hstemhm
          9 990 hintmask 11101100
          840 599 -42 callgsubr
          -406 -723 rmoveto
          141 hlineto
          hintmask 11110100
          121 686 -99 callsubr
          368 -461 -82 callgsubr
        </CharString>
        <CharString name="uni01CC">
          206 -6 callgsubr
          91 5 callsubr
          93 124 33 callgsubr
          hintmask 11011100
          729 599 -42 callgsubr
          -399 -723 rmoveto
          -67 callgsubr
          hintmask 11101100
          -43 callsubr
          hintmask 11011100
          -55 callgsubr
          hintmask 11101100
          -80 callsubr
          111 -374 rmoveto
          -16 -96 rlineto
          -8 22 45 -8 34 hhcurveto
          99 41 71 70 12 hvcurveto
          hintmask 11011100
          100 567 -82 callsubr
          -98 -553 rlineto
          -28 -5 -17 -15 -28 hhcurveto
          endchar
        </CharString>
        <CharString name="uni01CD">
          8 callsubr
          32 callsubr
          376 733 -98 callsubr
          221 -55 callsubr
        </CharString>
        <CharString name="uni01CE">
          -77 callsubr
          82 135 27 callgsubr
          hintmask 01101100
          266 588 -98 callsubr
          341 -719 rmoveto
          hintmask 10011100
          -93 callgsubr
          hintmask 01101100
          -104 callgsubr
          endchar
        </CharString>
        <CharString name="uni01CF">
          11 callsubr
          67 135 hstem
          9 391 vstem
          150 733 -98 callsubr
          -59 -868 -53 callgsubr
        </CharString>
        <CharString name="uni01D0">
          -12 callsubr
          82 135 hstem
          13 362 vstem
          125 588 -98 callsubr
          -30 -6 callsubr
        </CharString>
        <CharString name="uni01D1">
          25 callsubr
          hstem
          -61 callgsubr
          vstem
          414 733 -98 callsubr
          15 -880 -107 callsubr
          endchar
        </CharString>
        <CharString name="uni01D2">
          -66 callsubr
          50 135 hstem
          -53 callsubr
          vstem
          270 588 -98 callsubr
          77 -735 -107 callgsubr
          endchar
        </CharString>
        <CharString name="uni01D3">
          -31 callgsubr
          67 135 60 callgsubr
          386 733 -98 callsubr
          273 -182 rmoveto
          -106 callsubr
          76 431 rlineto
          endchar
        </CharString>
        <CharString name="uni01D4">
          -62 callsubr
          82 135 29 callgsubr
          hintmask 01111000
          289 588 -98 callsubr
          160 -723 -90 callsubr
        </CharString>
        <CharString name="uni01D5">
          -31 callgsubr
          84 118 55 88 60 callgsubr
          330 923 -65 callgsubr
          -58 -261 -101 callsubr
          60 -182 rmoveto
          -106 callsubr
          76 431 rlineto
          endchar
        </CharString>
        <CharString name="uni01D6">
          -62 callsubr
          99 118 55 88 29 callgsubr
          hintmask 01111100
          233 778 -65 callgsubr
          -58 -261 -87 callgsubr
        </CharString>
        <CharString name="uni01D7">
          -31 callgsubr
          84 118 35 132 60 callgsubr
          532 903 -102 callsubr
          -135 -153 -101 callsubr
          60 -182 rmoveto
          -106 callsubr
          76 431 rlineto
          endchar
        </CharString>
        <CharString name="uni01D8">
          -62 callsubr
          99 118 35 83 callgsubr
          hintmask 01111100
          435 758 -102 callsubr
          -135 -153 -87 callgsubr
        </CharString>
        <CharString name="uni01D9">
          -31 callgsubr
          84 118 32 135 60 callgsubr
          416 900 -98 callsubr
          -47 -285 -101 callsubr
          60 -182 rmoveto
          -106 callsubr
          76 431 rlineto
          endchar
        </CharString>
        <CharString name="uni01DA">
          -62 callsubr
          99 118 32 135 29 callgsubr
          hintmask 01111100
          319 755 -98 callsubr
          -47 -285 -87 callgsubr
        </CharString>
        <CharString name="uni01DB">
          -31 callgsubr
          84 118 35 132 60 callgsubr
          427 903 -84 callsubr
          -55 -282 -101 callsubr
          60 -182 rmoveto
          -106 callsubr
          76 431 rlineto
          endchar
        </CharString>
        <CharString name="uni01DC">
          -62 callsubr
          99 118 35 83 callgsubr
          hintmask 01111100
          330 758 -84 callsubr
          -55 -282 -87 callgsubr
        </CharString>
        <CharString name="uni01EA">
          95 -182 69 101 -74 callsubr
          hstem
          34 149 148 112 154 150 vstem
          432 698 rmoveto
          -219 -140 -136 -216 -33 hvcurveto
          -23 callsubr
          10 10 0 1 9 vhcurveto
          -24 -24 21 callgsubr
          2 vlineto
          141 47 90 120 22 167 rrcurveto
          53 callsubr
          182 -117 87 -198 vhcurveto
          154 -370 -43 callgsubr
          136 23 83 81 133 hhcurveto
          110 54 -58 -99 -40 callsubr
          hvcurveto
          endchar
        </CharString>
        <CharString name="uni01EB">
          -72 -182 69 101 112 326 112 hstem
          24 133 78 112 83 133 vstem
          320 538 rmoveto
          -62 callgsubr
          14 hlineto
          -23 -23 21 callgsubr
          1 vlineto
          92 35 53 79 19 109 rrcurveto
          5 27 2 29 31 vvcurveto
          -3 129 -100 91 -140 -1 rrcurveto
          106 -279 -46 callgsubr
          13 108 49 52 88 -1 74 1 44 -42 1 -68 rrcurveto
          46 callgsubr
        </CharString>
        <CharString name="uni01F1">
          650 0 123 440 6 callsubr
          554 -686 rmoveto
          -81 callgsubr
          -391 55 -73 callgsubr
          endchar
        </CharString>
        <CharString name="uni01F2">
          62 callsubr
          hstemhm
          541 150 hintmask 10111000
          -39 callgsubr
          hintmask 01111000
          175 -563 -73 callgsubr
          hintmask 10111000
          392 -123 rmoveto
          -87 callsubr
          endchar
        </CharString>
        <CharString name="uni01F3">
          428 -12 119 -107 34 callsubr
          -103 115 185 -20 89 callgsubr
          hintmask 01101100
          369 hmoveto
          114 hlineto
          -22 callgsubr
          hintmask 10011100
          -45 -258 -39 callsubr
          hintmask 01101100
          217 -69 rmoveto
          -87 callsubr
          hintmask 10011100
          -347 46 0 callsubr
        </CharString>
        <CharString name="uni01F4">
          -28 callgsubr
          38 132 16 callgsubr
          hintmask 10111110
          530 736 -102 callsubr
          hintmask 01111110
          138 -736 rmoveto
          -47 callgsubr
          hintmask 10111110
          -98 callgsubr
          endchar
        </CharString>
        <CharString name="uni01F5">
          -38 callgsubr
          85 132 96 callgsubr
          hintmask 11101100
          418 591 -102 callsubr
          54 -500 -83 callsubr
          hintmask 11011100
          19 callsubr
          hintmask 11101100
          -93 callsubr
        </CharString>
        <CharString name="uni0200">
          -74 callgsubr
          50 132 32 callsubr
          422 736 -91 callsubr
          23 -736 -103 callsubr
        </CharString>
        <CharString name="uni0201">
          -77 callsubr
          85 43 callsubr
          hintmask 01101100
          312 591 -91 callsubr
          143 -587 rmoveto
          hintmask 10011100
          -93 callgsubr
          hintmask 01101100
          -104 callgsubr
          endchar
        </CharString>
        <CharString name="uni0202">
          -74 callgsubr
          93 89 32 callsubr
          598 -72 callsubr
          7 -731 -103 callsubr
        </CharString>
        <CharString name="uni0203">
          -77 callsubr
          80 137 -89 89 27 callgsubr
          hintmask 00000000
          hintmask 01101010
          488 586 -17 callgsubr
          hintmask 01100110
          59 -49 60 -90 vhcurveto
          hintmask 01101010
          5 callgsubr
          hintmask 01100110
          20 6 26 28 47 hhcurveto
          hintmask 01101010
          47 18 -28 -20 -1 hvcurveto
          127 -582 rmoveto
          hintmask 10010110
          -93 callgsubr
          hintmask 01100110
          -31 -61 rlineto
          -6 hlineto
          47 -31 -45 26 -73 hhcurveto
          -169 -66 -202 -140 -137 69 -71 103 61 57 29 52 38 hvcurveto
          6 hlineto
          -49 5 35 -32 52 hhcurveto
          hintmask 01101010
          39 28 9 7 15 hvcurveto
          hintmask 01100110
          -66 callgsubr
        </CharString>
        <CharString name="uni0204">
          -69 callgsubr
          50 132 39 callgsubr
          405 736 -91 callsubr
          -466 -736 rmoveto
          -102 callgsubr
          endchar
        </CharString>
        <CharString name="uni0205">
          -42 callsubr
          53 132 hstem
          -36 callsubr
          vstem
          320 591 -91 callsubr
          -231 -360 -106 callgsubr
          endchar
        </CharString>
        <CharString name="uni0206">
          -69 callgsubr
          93 89 39 callgsubr
          581 -72 callsubr
          -482 -731 rmoveto
          -102 callgsubr
          endchar
        </CharString>
        <CharString name="uni0207">
          -42 callsubr
          48 137 -89 89 15 callsubr
          hintmask 00000000
          hintmask 11110110
          496 586 -17 callgsubr
          hintmask 11101110
          59 -49 60 -90 vhcurveto
          hintmask 11110110
          5 callgsubr
          hintmask 11101110
          20 6 26 28 47 hhcurveto
          hintmask 11110110
          47 18 -28 -20 -1 hvcurveto
          -247 -355 -106 callgsubr
          endchar
        </CharString>
        <CharString name="uni0208">
          -405 26 callsubr
          6 365 vstem
          196 736 -91 callsubr
          -257 -736 -53 callgsubr
        </CharString>
        <CharString name="uni0209">
          -405 21 69 callgsubr
          hstem
          -19 365 vstem
          171 591 -91 callsubr
          -228 -591 -59 callgsubr
        </CharString>
        <CharString name="uni020A">
          11 callsubr
          113 89 hstem
          9 364 vstem
          372 -72 callsubr
          -273 -731 -53 callgsubr
        </CharString>
        <CharString name="uni020B">
          -12 callsubr
          80 137 -89 89 hstemhm
          13 335 hintmask 00000000
          hintmask 11101000
          347 586 -17 callgsubr
          hintmask 11011000
          59 -49 60 -90 vhcurveto
          hintmask 11101000
          5 callgsubr
          hintmask 11011000
          20 6 26 28 47 hhcurveto
          hintmask 11101000
          47 18 -28 -20 -1 hvcurveto
          -244 -586 -59 callgsubr
        </CharString>
        <CharString name="uni020C">
          -29 callgsubr
          460 736 -91 callsubr
          -183 -748 -107 callsubr
          endchar
        </CharString>
        <CharString name="uni020D">
          -30 callsubr
          316 591 -91 callsubr
          -121 -603 -107 callgsubr
          endchar
        </CharString>
        <CharString name="uni020E">
          -51 callgsubr
          81 89 hstem
          -61 callgsubr
          vstem
          636 -72 callsubr
          -199 -743 -107 callsubr
          endchar
        </CharString>
        <CharString name="uni020F">
          -66 callsubr
          48 137 -89 89 hstemhm
          -53 callsubr
          hintmask 00000000
          hintmask 11101100
          492 586 -17 callgsubr
          hintmask 11011100
          59 -49 60 -90 vhcurveto
          hintmask 11101100
          5 callgsubr
          hintmask 11011100
          20 6 26 28 47 hhcurveto
          hintmask 11101100
          47 18 -28 -20 -1 hvcurveto
          -137 -598 -107 callgsubr
          endchar
        </CharString>
        <CharString name="uni0210">
          25 callgsubr
          50 132 hstem
          542 150 vstem
          432 736 -91 callsubr
          -31 -736 rmoveto
          -92 callsubr
          endchar
        </CharString>
        <CharString name="uni0211">
          -294 21 -9 callgsubr
          82 132 hstemhm
          17 395 hintmask 10101100
          237 591 -91 callsubr
          -290 -591 -37 callgsubr
        </CharString>
        <CharString name="uni0212">
          25 callgsubr
          93 89 hstem
          542 150 vstem
          608 -72 callsubr
          -47 -731 rmoveto
          -92 callsubr
          endchar
        </CharString>
        <CharString name="uni0213">
          -294 21 -9 callgsubr
          77 137 -89 89 hstemhm
          17 397 hintmask 00000000
          hintmask 10101010
          413 586 -17 callgsubr
          hintmask 10100110
          59 -49 60 -90 vhcurveto
          hintmask 10101010
          5 callgsubr
          hintmask 10100110
          20 6 26 28 47 hhcurveto
          hintmask 10101010
          47 18 -28 -20 -1 hvcurveto
          -306 -586 39 callsubr
          45 254 rlineto
          96 17 45 51 91 hhcurveto
          38 hlineto
          hintmask 10010110
          22 128 rlineto
          hintmask 10100110
          -18 callsubr
          hintmask 11000110
          85 -113 vlineto
          endchar
        </CharString>
        <CharString name="uni0214">
          65 callgsubr
          432 736 -91 callsubr
          75 -50 rmoveto
          -106 callsubr
          76 431 rlineto
          endchar
        </CharString>
        <CharString name="uni0215">
          -5 callgsubr
          335 591 -91 callsubr
          -38 -591 -90 callsubr
        </CharString>
        <CharString name="uni0216">
          -31 callgsubr
          113 89 60 callgsubr
          608 -72 callsubr
          59 -45 rmoveto
          -106 callsubr
          76 431 rlineto
          endchar
        </CharString>
        <CharString name="uni0217">
          -62 callsubr
          80 137 -89 89 29 callgsubr
          hintmask 00000000
          hintmask 01110100
          511 586 -17 callgsubr
          hintmask 01101100
          59 -49 60 -90 vhcurveto
          hintmask 01110100
          5 callgsubr
          hintmask 01101100
          20 6 26 28 47 hhcurveto
          hintmask 01110100
          47 18 -28 -20 -1 hvcurveto
          -54 -586 -50 callgsubr
          hintmask 10101100
          -104 callsubr
          endchar
        </CharString>
        <CharString name="uni021A">
          -72 -138 98 61 -28 callsubr
          -134 -791 rmoveto
          73 hlineto
          -70 callgsubr
        </CharString>
        <CharString name="uni021B">
          -350 -138 98 28 80 callsubr
          hintmask 01110000
          244 4 -75 callgsubr
          -231 -234 rmoveto
          73 hlineto
          hintmask 11110000
          -70 callgsubr
        </CharString>
</ttFont>
